<?xml version="1.0" encoding="UTF-8" standalone="no"?>
<!-- Created with Inkscape (http://www.inkscape.org/) -->

<svg
   width="72.403992"
   height="82.853065"
   viewBox="0 0 19.156889 21.921539"
   version="1.1"
   id="svg2431"
   inkscape:version="1.1.2 (0a00cf5339, 2022-02-04)"
   sodipodi:docname="detroit-logo.svg"
   xmlns:inkscape="http://www.inkscape.org/namespaces/inkscape"
   xmlns:sodipodi="http://sodipodi.sourceforge.net/DTD/sodipodi-0.dtd"
   xmlns="http://www.w3.org/2000/svg"
   xmlns:svg="http://www.w3.org/2000/svg">
  <sodipodi:namedview
     id="namedview2433"
     pagecolor="#ffffff"
     bordercolor="#666666"
     borderopacity="1.0"
     inkscape:pageshadow="2"
     inkscape:pageopacity="0.0"
     inkscape:pagecheckerboard="0"
     inkscape:document-units="px"
     showgrid="false"
     fit-margin-top="0"
     fit-margin-left="0"
     fit-margin-right="0"
     fit-margin-bottom="0"
     units="px"
     showguides="false"
     inkscape:zoom="3.1001683"
     inkscape:cx="23.869671"
     inkscape:cy="106.92968"
     inkscape:window-width="1850"
     inkscape:window-height="1016"
     inkscape:window-x="70"
     inkscape:window-y="27"
     inkscape:window-maximized="1"
     inkscape:current-layer="layer1" />
  <defs
     id="defs2428" />
  <g
     inkscape:label="Layer 1"
     inkscape:groupmode="layer"
     id="layer1"
     transform="translate(-114.68362,-121.4944)">
    <g
       id="g192"
       transform="matrix(0.35277777,0,0,-0.35277777,129.84633,141.97862)">
      <path
         d="M 0,0 -18.447,-3.683 -36.971,0.039 V 39.342 L 0,39.304 Z"
         style="fill:#ffffff;fill-opacity:1;fill-rule:nonzero;stroke:none"
         id="path194" />
    </g>
    <g
       id="g196"
       transform="matrix(0.35277777,0,0,-0.35277777,123.33846,143.41594)">
      <path
         d="M 0,0 -18.907,3.799 V 43.801 L 18.831,43.8 V 3.799 L 0,0 M -18.14,4.427 0,0.782 18.064,4.427 V 43.033 H -18.14 Z"
         style="fill:#004445;fill-opacity:1;fill-rule:nonzero;stroke:none"
         id="path198" />
    </g>
    <g
       id="g200"
       transform="matrix(0.35277777,0,0,-0.35277777,126.5293,138.17211)">
      <path
         d="M 0,0 V 0.511 H 8.006 V 4.287 H -26.262 V 0.511 h 7.859 V 0 h -7.859 v -9.657 l 17.135,-3.354 17.133,3.354 V 0 Z"
         style="fill:#004445;fill-opacity:1;fill-rule:nonzero;stroke:none"
         id="path202" />
    </g>
    <g
       id="g204"
       transform="matrix(0.35277777,0,0,-0.35277777,121.33567,138.51152)">
      <path
         d="m 0,0 c -0.858,0 -1.254,0.578 -1.254,1.223 0,0.645 0.414,1.222 1.268,1.222 0.312,0 0.553,-0.067 0.745,-0.195 L 0.468,1.761 C 0.34,1.836 0.213,1.889 0.004,1.889 c -0.348,0 -0.543,-0.266 -0.543,-0.645 0,-0.397 0.184,-0.684 0.549,-0.684 0.256,0 0.39,0.092 0.5,0.167 L 0.78,0.259 C 0.659,0.152 0.355,0 0,0"
         style="fill:#ffffff;fill-opacity:1;fill-rule:nonzero;stroke:none"
         id="path206" />
    </g>
    <path
       d="m 121.77393,138.4966 h 0.23989 v -0.83256 h -0.23989 z"
       style="fill:#ffffff;fill-opacity:1;fill-rule:nonzero;stroke:none;stroke-width:0.352778"
       id="path208" />
    <g
       id="g210"
       transform="matrix(0.35277777,0,0,-0.35277777,122.6389,137.85768)">
      <path
         d="M 0,0 V -1.811 H -0.677 V 0 H -1.311 V 0.549 H 0.634 V 0 Z"
         style="fill:#ffffff;fill-opacity:1;fill-rule:nonzero;stroke:none"
         id="path212" />
    </g>
    <g
       id="g214"
       transform="matrix(0.35277777,0,0,-0.35277777,123.48416,138.18273)">
      <path
         d="M 0,0 V -0.89 H -0.677 V 0 l -0.776,1.471 h 0.748 l 0.397,-0.847 h 0.003 l 0.394,0.847 h 0.655 z"
         style="fill:#ffffff;fill-opacity:1;fill-rule:nonzero;stroke:none"
         id="path216" />
    </g>
    <g
       id="g218"
       transform="matrix(0.35277777,0,0,-0.35277777,124.53741,138.51166)">
      <path
         d="m 0,0 c -0.84,0 -1.28,0.592 -1.28,1.22 0,0.634 0.426,1.226 1.266,1.226 0.843,0 1.258,-0.582 1.258,-1.205 C 1.244,0.606 0.843,0 0,0 m 0,1.907 c -0.408,0 -0.563,-0.302 -0.563,-0.666 0,-0.372 0.152,-0.702 0.549,-0.702 0.407,0 0.546,0.315 0.546,0.681 C 0.532,1.588 0.4,1.907 0,1.907"
         style="fill:#ffffff;fill-opacity:1;fill-rule:nonzero;stroke:none"
         id="path220" />
    </g>
    <g
       id="g222"
       transform="matrix(0.35277777,0,0,-0.35277777,125.41128,137.85768)">
      <path
         d="m 0,0 v -0.436 h 0.688 v -0.51 H 0 v -0.865 h -0.677 v 2.36 h 1.45 L 0.773,0 Z"
         style="fill:#ffffff;fill-opacity:1;fill-rule:nonzero;stroke:none"
         id="path224" />
    </g>
    <g
       id="g226"
       transform="matrix(0.35277777,0,0,-0.35277777,118.73637,140.70911)">
      <path
         d="m 0,0 h -1.672 v 4.799 h 1.715 c 1.881,0 2.76,-0.944 2.76,-2.328 C 2.803,1.088 1.902,0 0,0 M 0.072,3.71 H -0.296 V 1.088 h 0.404 c 0.843,0 1.239,0.461 1.239,1.34 0,0.893 -0.396,1.282 -1.275,1.282"
         style="fill:#ffffff;fill-opacity:1;fill-rule:nonzero;stroke:none"
         id="path228" />
    </g>
    <g
       id="g230"
       transform="matrix(0.35277777,0,0,-0.35277777,119.94696,140.70925)">
      <path
         d="M 0,0 V 4.799 H 3.012 V 3.682 H 1.355 V 2.961 H 2.818 V 1.924 H 1.355 V 1.117 H 3.063 V 0 Z"
         style="fill:#ffffff;fill-opacity:1;fill-rule:nonzero;stroke:none"
         id="path232" />
    </g>
    <g
       id="g234"
       transform="matrix(0.35277777,0,0,-0.35277777,122.17881,139.41022)">
      <path
         d="M 0,0 V -3.682 H -1.377 V 0 H -2.666 V 1.117 H 1.29 V 0 Z"
         style="fill:#ffffff;fill-opacity:1;fill-rule:nonzero;stroke:none"
         id="path236" />
    </g>
    <g
       id="g238"
       transform="matrix(0.35277777,0,0,-0.35277777,123.82343,140.70911)">
      <path
         d="M 0,0 -0.814,1.369 C -1.038,1.744 -1.11,1.786 -1.261,1.786 h -0.05 V 0 h -1.377 v 4.799 h 1.838 c 1.225,0 1.917,-0.497 1.917,-1.463 0,-0.779 -0.491,-1.16 -0.937,-1.319 V 2.003 C 0.288,1.888 0.49,1.664 0.735,1.246 L 1.477,0 H 0 M -0.922,3.783 H -1.311 V 2.709 h 0.432 c 0.404,0 0.598,0.202 0.598,0.533 0,0.36 -0.187,0.541 -0.641,0.541"
         style="fill:#ffffff;fill-opacity:1;fill-rule:nonzero;stroke:none"
         id="path240" />
    </g>
    <g
       id="g242"
       transform="matrix(0.35277777,0,0,-0.35277777,125.27796,140.73977)">
      <path
         d="m 0,0 c -1.707,0 -2.601,1.203 -2.601,2.479 0,1.29 0.864,2.493 2.572,2.493 C 1.686,4.972 2.53,3.79 2.53,2.522 2.53,1.232 1.715,0 0,0 m 0,3.877 c -0.829,0 -1.146,-0.613 -1.146,-1.355 0,-0.757 0.31,-1.427 1.117,-1.427 0.829,0 1.11,0.641 1.11,1.384 0,0.749 -0.267,1.398 -1.081,1.398"
         style="fill:#ffffff;fill-opacity:1;fill-rule:nonzero;stroke:none"
         id="path244" />
    </g>
    <path
       d="m 126.38473,140.70922 h 0.48789 v -1.69298 h -0.48789 z"
       style="fill:#ffffff;fill-opacity:1;fill-rule:nonzero;stroke:none;stroke-width:0.352778"
       id="path246" />
    <g
       id="g248"
       transform="matrix(0.35277777,0,0,-0.35277777,128.07059,139.41022)">
      <path
         d="M 0,0 V -3.682 H -1.377 V 0 H -2.666 V 1.117 H 1.29 V 0 Z"
         style="fill:#ffffff;fill-opacity:1;fill-rule:nonzero;stroke:none"
         id="path250" />
    </g>
    <path
       d="m 117.26472,136.46742 h 12.08934 v -7.87047 h -12.08934 z"
       style="fill:#a0d5b3;fill-opacity:1;fill-rule:nonzero;stroke:none;stroke-width:0.352778"
       id="path252" />
    <g
       id="g254"
       transform="matrix(0.35277777,0,0,-0.35277777,131.26206,124.97039)">
      <path
         d="m 0,0 -3.631,-1.953 -4.687,-7.794 -8.084,5.572 -4.679,-1.003 -0.085,4.684 c 0,0 -4.223,1.607 -4.278,1.687 -0.163,-0.086 -3.74,-1.952 -3.868,-2.109 l -0.646,-2.176 1.659,-1.909 -0.189,-2.081 1.006,-0.042 0.529,-0.588 -3.872,-2.067 -5.434,-6.395 -7.483,2.347 -1.994,2.229 -1.258,0.096 1.786,-3.342 10.282,-4.677 6.568,6.651 3.164,-3.386 -0.646,-3.699 -0.309,-0.22 c -1.762,-1.06 -10.647,-6.451 -11.525,-7.84 l -0.51,-1.334 1.89,-3.242 h 27.609 l 1.886,3.242 -0.508,1.334 c -0.594,0.939 -4.843,3.705 -8.079,5.727 l -2.787,1.616 2.726,9.923 8.186,-2.714 4.849,10.041 3.138,1.884 1.184,1.343 z"
         style="fill:#18a696;fill-opacity:1;fill-rule:nonzero;stroke:none"
         id="path256" />
    </g>
    <g
       id="g258"
       transform="matrix(0.35277777,0,0,-0.35277777,133.84051,123.66995)">
      <path
         d="m 0,0 -0.05,0.13 -7.517,-2.655 c 0.067,-0.14 0.12,-0.288 0.159,-0.442 z"
         style="fill:#18a696;fill-opacity:1;fill-rule:nonzero;stroke:none"
         id="path260" />
    </g>
    <g
       id="g262"
       transform="matrix(0.35277777,0,0,-0.35277777,129.1188,121.4944)">
      <path
         d="m 0,0 -0.132,-0.049 2.657,-7.517 c 0.14,0.067 0.287,0.12 0.441,0.158 z"
         style="fill:#18a696;fill-opacity:1;fill-rule:nonzero;stroke:none"
         id="path264" />
    </g>
    <g
       id="g266"
       transform="matrix(0.35277777,0,0,-0.35277777,126.94276,126.2158)">
      <path
         d="M 0,0 0.034,-0.091 7.565,2.525 C 7.499,2.666 7.446,2.812 7.407,2.967 Z"
         style="fill:#18a696;fill-opacity:1;fill-rule:nonzero;stroke:none"
         id="path268" />
    </g>
    <g
       id="g270"
       transform="matrix(0.35277777,0,0,-0.35277777,127.04019,123.43157)">
      <path
         d="m 0,0 -0.055,-0.128 7.222,-3.379 c 0.047,0.151 0.11,0.295 0.184,0.432 z"
         style="fill:#18a696;fill-opacity:1;fill-rule:nonzero;stroke:none"
         id="path272" />
    </g>
    <g
       id="g274"
       transform="matrix(0.35277777,0,0,-0.35277777,131.90299,121.59198)">
      <path
         d="m 0,0 -0.107,0.047 -0.021,0.011 -3.38,-7.224 c 0.151,-0.047 0.295,-0.11 0.432,-0.185 z"
         style="fill:#18a696;fill-opacity:1;fill-rule:nonzero;stroke:none"
         id="path276" />
    </g>
    <g
       id="g278"
       transform="matrix(0.35277777,0,0,-0.35277777,125.83412,132.8331)">
      <path
         d="m 0,0 -2.29,-5.076 -5.684,-1.797 2.213,2.204 -3.736,-1.477 10e-4,2.79 4,2.536 -4.985,-2.042 v 1.556 l 6.174,2.589 -4.734,-1.357 -10e-4,0.935 -1.721,1.253 C -12.525,1.053 -21.41,-4.338 -22.288,-5.727 l -0.509,-1.333 1.889,-3.242 H 6.701 L 8.588,-7.06 8.079,-5.727 C 7.485,-4.788 3.237,-2.022 0,0 m -20.295,-7.879 8.83,4.385 V -5.531 L -15.9,-7.51 Z m 7.318,-1.166 -0.009,-0.003 -1.765,-0.649 c 0,0 0.974,1.713 0.978,1.723 l 2.372,1.173 z m 14.863,4.115 -2.352,0.193 1.755,1.402 1.542,-1.134 1.559,-3.003 z"
         style="fill:#004445;fill-opacity:1;fill-rule:nonzero;stroke:none"
         id="path280" />
    </g>
    <g
       id="g282"
       transform="matrix(0.35277777,0,0,-0.35277777,115.69144,127.86493)">
      <path
         d="m 0,0 h 0.806 c 0,0 -0.018,-1.169 -0.013,-1.372 z"
         style="fill:#004445;fill-opacity:1;fill-rule:nonzero;stroke:none"
         id="path284" />
    </g>
    <g
       id="g286"
       transform="matrix(0.35277777,0,0,-0.35277777,116.46635,128.47601)">
      <path
         d="m 0,0 h -0.807 c 0,0 0.019,1.169 0.014,1.372 z"
         style="fill:#004445;fill-opacity:1;fill-rule:nonzero;stroke:none"
         id="path288" />
    </g>
    <g
       id="g290"
       transform="matrix(0.35277777,0,0,-0.35277777,131.26206,124.97039)">
      <path
         d="m 0,0 -3.631,-1.953 -4.687,-7.794 -8.084,5.572 -4.679,-1.003 -0.085,4.684 c 0,0 -4.223,1.608 -4.278,1.687 -0.163,-0.086 -3.74,-1.952 -3.868,-2.109 l -0.646,-2.176 1.659,-1.909 -0.189,-2.081 1.006,-0.042 0.529,-0.588 -3.871,-2.067 -5.435,-6.395 -6.443,2.021 c -0.002,0.696 -0.005,1.787 -0.008,3.675 h -1.238 l -0.156,1.354 h -0.694 v -3.522 l -0.938,1.048 -1.258,0.096 1.787,-3.342 2.488,-1.132 0.021,-0.095 v 0.086 l 7.773,-3.536 6.567,6.651 3.164,-3.386 -0.647,-3.707 2.117,-1.038 5.963,1.875 2.315,8.377 8.185,-2.714 4.849,10.041 3.138,1.884 L 1.91,-0.194 0,0 m -43.554,-13.886 -0.378,3.27 0.767,-3.392 z m 20.975,8.861 -0.838,-1.734 0.143,1.676 -0.945,0.174 1.005,0.406 z m -5.636,1.269 -0.965,0.93 1.235,-0.397 2.091,0.354 0.011,-0.008 0.521,-0.373 0.719,0.08 0.297,-0.223 -0.456,-0.258 0.992,-0.078 -1.102,-0.611 -1.241,0.914 c 0,0 -2.097,-0.331 -2.102,-0.33 m 6.616,-14.459 -0.696,-1.877 h -0.643 l 0.655,1.824 v 1.179 l 0.331,0.306 0.222,-0.858 2.984,0.185 z m 11.849,6.788 -5.61,2.71 -2.326,-5.341 -4.652,0.824 -2.356,-0.95 -0.014,0.011 -3.199,2.43 0.047,0.023 5.895,2.891 0.34,1.569 0.018,0.005 5.816,1.423 6.691,-4.589 z"
         style="fill:#004445;fill-opacity:1;fill-rule:nonzero;stroke:none"
         id="path292" />
    </g>
  </g>
</svg>
