<?xml version="1.0" encoding="UTF-8" standalone="no"?>
<!-- Generator: Adobe Illustrator 16.0.0, SVG Export Plug-In . SVG Version: 6.00 Build 0)  -->

<svg
   version="1.1"
   id="Layer_1"
   x="0px"
   y="0px"
   width="420"
   height="150"
   viewBox="0 0 419.99999 150"
   enable-background="new 0 0 391.889 121.536"
   xml:space="preserve"
   sodipodi:docname="p2pu-logo-p.svg"
   inkscape:version="1.1.2 (0a00cf5339, 2022-02-04)"
   xmlns:inkscape="http://www.inkscape.org/namespaces/inkscape"
   xmlns:sodipodi="http://sodipodi.sourceforge.net/DTD/sodipodi-0.dtd"
   xmlns="http://www.w3.org/2000/svg"
   xmlns:svg="http://www.w3.org/2000/svg"><defs
   id="defs1090" /><sodipodi:namedview
   id="namedview1088"
   pagecolor="#ffffff"
   bordercolor="#666666"
   borderopacity="1.0"
   inkscape:pageshadow="2"
   inkscape:pageopacity="0.0"
   inkscape:pagecheckerboard="0"
   showgrid="false"
   inkscape:zoom="1.6305637"
   inkscape:cx="157.00092"
   inkscape:cy="7.6660604"
   inkscape:window-width="1850"
   inkscape:window-height="1016"
   inkscape:window-x="70"
   inkscape:window-y="27"
   inkscape:window-maximized="1"
   inkscape:current-layer="Layer_1" />
<g
   id="g1085"
   transform="translate(14.0555,14.232)">
	<g
   id="g1083">
		<g
   id="XMLID_15_">
			<g
   id="g1080">
				<polygon
   opacity="0.15"
   fill="#ffbd1a"
   points="362.119,111.616 361.93,111.616 325.109,111.616 324.92,111.616 312.52,99.215 312.52,19.88 305.08,19.88 305.08,9.92 329.879,9.92 329.879,19.85 324.92,19.85 324.92,94.245 332.359,101.696 354.68,101.696 362.119,94.256 362.119,19.85 357.16,19.85 357.16,9.92 381.969,9.92 381.969,19.88 374.52,19.88 374.52,99.215 "
   id="polygon1060" />
				<path
   opacity="0.15"
   fill="#05c7b4"
   d="m 277.789,22.33 v 37.2 l -12.4,12.4 H 265.2 225.71 v 29.766 h 7.441 v 9.92 H 205.86 v -9.92 h 7.439 V 19.88 H 205.86 V 9.92 h 59.529 z m -12.4,32.24 V 27.29 l -7.439,-7.44 h -32.24 v 42.16 h 32.24 z"
   id="path1062" />
				<polygon
   opacity="0.15"
   fill="#b7d600"
   points="163.699,42.165 163.699,27.29 156.26,19.85 128.969,19.85 121.529,27.29 121.529,37.21 109.129,37.21 109.129,22.33 121.529,9.92 163.699,9.92 176.1,22.33 176.1,47.126 121.529,101.696 176.1,101.696 176.1,111.616 109.129,111.616 109.129,96.725 "
   id="polygon1064" />
				<path
   opacity="0.15"
   fill="#e17300"
   d="m 81.85,22.33 v 37.2 l -12.41,12.4 h -0.18 -39.5 v 29.766 h 7.439 v 9.92 H 9.92 v -9.92 h 7.439 V 19.88 H 9.92 V 9.92 H 69.44 Z M 69.449,54.57 V 27.29 L 62.01,19.85 H 29.76 V 62.01 H 62 Z"
   id="path1066" />
				<path
   fill="#ffbd1a"
   d="m 391.889,0 v 29.8 h -7.439 v 74.376 l -17.369,17.359 H 319.96 L 302.6,104.176 V 29.8 h -7.439 V 0 h 0.609 44.029 v 27.29 h -4.959 v 62.005 l 2.48,2.471 v 0.01 h 12.398 v -0.01 l 2.48,-2.471 V 27.29 h -4.959 V 0 Z m -9.92,19.88 V 9.92 H 357.16 v 9.93 h 4.959 v 74.407 l -7.439,7.439 h -22.32 l -7.439,-7.451 V 19.85 h 4.959 V 9.92 h -24.8 v 9.96 h 7.439 v 79.335 l 12.4,12.4 h 0.189 36.82 0.189 l 12.4,-12.4 V 19.88 Z"
   id="path1068" />
				<path
   fill="#05c7b4"
   d="M 287.709,64.491 270.35,81.85 h -34.721 v 9.926 h 7.441 v 29.76 h -47.131 v -29.76 h 7.439 V 29.8 h -7.439 V 0 h 74.41 l 17.359,17.37 v 47.121 z m -9.92,-4.961 V 22.33 L 265.389,9.92 H 205.86 v 9.96 h 7.439 v 81.816 h -7.439 v 9.92 h 27.291 v -9.92 H 225.71 V 71.93 h 39.49 0.189 z"
   id="path1070" />
				<path
   fill="#05c7b4"
   d="m 265.389,27.29 v 27.28 l -7.439,7.44 H 225.71 V 19.85 h 32.24 z m -9.92,22.32 V 32.25 l -2.479,-2.48 h -17.361 v 22.32 h 17.361 z"
   id="path1072" />
				<path
   fill="#b7d600"
   d="m 186.02,91.776 v 29.76 H 99.209 v -29.76 l 54.57,-54.212 V 32.25 l -2.48,-2.48 H 133.93 l -2.48,2.48 V 47.13 H 99.21 V 17.37 L 116.57,0 h 52.09 l 17.359,17.37 V 52.087 L 146.33,91.776 Z m -9.92,19.84 v -9.92 H 121.53 L 176.1,47.126 V 22.33 L 163.7,9.92 h -42.17 l -12.4,12.41 v 14.88 h 12.4 v -9.92 l 7.439,-7.44 h 27.291 l 7.439,7.44 v 14.875 l -54.57,54.56 v 14.891 z"
   id="path1074" />
				<path
   fill="#e17300"
   d="M 91.77,17.37 V 64.491 L 74.41,81.85 H 39.68 v 9.926 h 7.439 v 29.76 H 0 V 91.776 H 7.439 V 29.8 H 0 V 0 H 74.41 Z M 81.85,59.53 V 22.33 L 69.439,9.92 H 9.92 v 9.96 h 7.439 v 81.816 H 9.92 v 9.92 h 27.279 v -9.92 H 29.76 V 71.93 h 39.5 0.18 z"
   id="path1076" />
				<path
   fill="#e17300"
   d="M 69.449,27.29 V 54.57 L 62,62.01 H 29.76 V 19.85 H 62.01 Z M 59.52,49.61 V 32.25 L 57.049,29.77 H 39.68 v 22.32 h 17.369 z"
   id="path1078" />
			</g>
		</g>
	</g>
</g>
</svg>
