<?xml version="1.0" encoding="UTF-8" standalone="no"?>
<!-- Created with Inkscape (http://www.inkscape.org/) -->

<svg
   version="1.1"
   id="svg2"
   xml:space="preserve"
   width="853.33331"
   height="191.50667"
   viewBox="0 0 853.33331 191.50667"
   sodipodi:docname="project-logo-white.svg"
   inkscape:version="1.1.2 (0a00cf5339, 2022-02-04)"
   xmlns:inkscape="http://www.inkscape.org/namespaces/inkscape"
   xmlns:sodipodi="http://sodipodi.sourceforge.net/DTD/sodipodi-0.dtd"
   xmlns="http://www.w3.org/2000/svg"
   xmlns:svg="http://www.w3.org/2000/svg"><defs
     id="defs6" /><sodipodi:namedview
     id="namedview4"
     pagecolor="#ffffff"
     bordercolor="#666666"
     borderopacity="1.0"
     inkscape:pageshadow="2"
     inkscape:pageopacity="0.0"
     inkscape:pagecheckerboard="0"
     showgrid="false"
     inkscape:zoom="0.39462892"
     inkscape:cx="-12.670131"
     inkscape:cy="-46.879484"
     inkscape:window-width="1850"
     inkscape:window-height="1016"
     inkscape:window-x="70"
     inkscape:window-y="27"
     inkscape:window-maximized="1"
     inkscape:current-layer="g8" /><g
     id="g8"
     inkscape:groupmode="layer"
     inkscape:label="ink_ext_XXXXXX"
     transform="matrix(1.3333333,0,0,-1.3333333,0,191.50667)"><g
       id="g10"
       transform="scale(0.1)"><path
         d="m 2417.99,958.227 h -53.97 v 241.553 h 53.97 c 79.76,0 127.2,-52.6 127.2,-121.01 0,-68.75 -46.98,-120.543 -127.2,-120.543 z m 0,273.403 h -86.97 V 926.832 h 86.97 c 97.52,0 162.03,64.856 162.03,151.938 0,87.09 -64.51,152.86 -162.03,152.86"
         style="fill:#ffffff;fill-opacity:1;fill-rule:nonzero;stroke:none"
         id="path12" /><path
         d="m 2674.9,958.227 v 108.863 h 141.51 v 31.73 H 2674.9 v 101.41 h 164.66 v 31.4 H 2641.9 V 926.832 h 204.19 v 31.395 H 2674.9"
         style="fill:#ffffff;fill-opacity:1;fill-rule:nonzero;stroke:none"
         id="path14" /><path
         d="m 2870.84,1231.63 v -31.85 h 99.35 V 926.832 h 33.46 v 272.948 h 99.69 v 31.85 h -232.5"
         style="fill:#ffffff;fill-opacity:1;fill-rule:nonzero;stroke:none"
         id="path16" /><path
         d="m 3183.09,1079.69 v 121.46 h 73.11 c 40.56,0 73.22,-19.13 73.22,-59.7 0,-38.73 -31.4,-61.76 -74.03,-61.76 z m 108.4,-26.13 c 40.45,12.15 72.3,46.53 72.3,89.61 0,50.99 -41.36,88.46 -106.68,88.46 H 3149.97 V 926.832 h 33.12 v 123.178 h 70.47 l 80.55,-123.178 h 40.91 l -83.53,126.728"
         style="fill:#ffffff;fill-opacity:1;fill-rule:nonzero;stroke:none"
         id="path18" /><path
         d="m 3562.37,954.219 c -66.23,0 -118.94,56.261 -118.94,125.011 0,68.75 52.71,124.9 118.94,124.9 65.66,0 118.37,-56.15 118.37,-124.9 0,-68.75 -52.71,-125.011 -118.37,-125.011 z m 0,282.111 c -85.37,0 -153.77,-70.47 -153.77,-157.1 0,-87.085 68.4,-157.554 153.77,-157.554 84.8,0 153.2,70.469 153.2,157.554 0,87.09 -68.4,157.1 -153.2,157.1"
         style="fill:#ffffff;fill-opacity:1;fill-rule:nonzero;stroke:none"
         id="path20" /><path
         d="M 3762.33,1231.63 V 926.832 h 33.12 v 304.798 h -33.12"
         style="fill:#ffffff;fill-opacity:1;fill-rule:nonzero;stroke:none"
         id="path22" /><path
         d="m 3836.48,1231.63 v -31.85 h 99.23 V 926.832 h 33.58 v 272.948 h 99.69 v 31.85 h -232.5"
         style="fill:#ffffff;fill-opacity:1;fill-rule:nonzero;stroke:none"
         id="path24" /><path
         d="M 2180.21,1056.6 H 200 v 31.87 h 1980.21 v -31.87"
         style="fill:#ffffff;fill-opacity:1;fill-rule:nonzero;stroke:none"
         id="path26" /><path
         d="M 6200,1056.6 H 4160.67 v 31.87 H 6200 v -31.87"
         style="fill:#ffffff;fill-opacity:1;fill-rule:nonzero;stroke:none"
         id="path28" /><path
         d="m 351.031,377.219 c 73.852,0 119.739,45.89 119.739,116.578 0,70.148 -45.887,115.512 -119.739,115.512 H 303.035 V 377.219 Z M 231.293,678.93 h 119.738 c 109.196,0 193.59,-73.317 193.59,-185.133 0,-112.356 -84.394,-184.086 -193.59,-184.086 H 231.293 V 678.93"
         style="fill:#ffffff;fill-opacity:1;fill-rule:nonzero;stroke:none"
         id="path30" /><path
         d="m 602.586,581.352 h 71.727 V 309.711 h -71.727 z m -1.055,103.91 h 73.852 v -61.715 h -73.852 v 61.715"
         style="fill:#ffffff;fill-opacity:1;fill-rule:nonzero;stroke:none"
         id="path32" /><path
         d="m 865.766,384.609 c 37.449,0 68.566,26.903 68.566,71.211 0,42.196 -31.117,71.735 -68.566,71.735 -37.973,0 -67.516,-31.653 -67.516,-71.735 0,-41.672 28.492,-71.211 67.516,-71.211 z M 751.84,228.48 l -0.535,65.93 c 28.496,-19.512 58.023,-32.172 96.008,-32.172 44.304,0 83.339,23.731 83.339,73.84 v 20.051 c -19.515,-21.629 -46.957,-32.707 -77.019,-32.707 -70.141,0 -125.524,58.019 -125.524,131.336 0,69.629 52.743,132.926 121.829,132.926 32.707,0 61.199,-15.301 81.769,-40.09 v 33.758 h 66.465 V 338.719 C 998.172,254.852 938.559,200 853.633,200 c -41.664,0 -77.008,11.602 -101.793,28.48"
         style="fill:#ffffff;fill-opacity:1;fill-rule:nonzero;stroke:none"
         id="path34" /><path
         d="m 1068.27,581.352 h 71.74 V 309.711 h -71.74 z m -1.06,103.91 h 73.85 v -61.715 h -73.85 v 61.715"
         style="fill:#ffffff;fill-opacity:1;fill-rule:nonzero;stroke:none"
         id="path36" /><path
         d="m 1319.31,303.379 c -58.54,0 -97.04,36.391 -97.04,110.242 v 106.547 h -35.86 v 61.184 h 35.86 v 79.121 h 70.67 v -79.121 h 65.41 v -61.184 h -66.98 V 408.871 c 0,-25.851 14.24,-42.73 42.72,-42.73 7.92,0 16.36,1.07 24.26,3.699 v -58.551 c -11.6,-4.75 -25.32,-7.91 -39.04,-7.91"
         style="fill:#ffffff;fill-opacity:1;fill-rule:nonzero;stroke:none"
         id="path38" /><path
         d="m 1502.31,357.711 c 35.35,0 68.05,22.68 68.05,52.219 v 18.461 h -55.38 c -36.4,0 -54.86,-12.141 -54.86,-36.403 0,-21.629 14.77,-34.277 42.19,-34.277 z m 70.69,-6.859 c -20.57,-29.543 -53.81,-47.473 -93.37,-47.473 -51.69,0 -82.8,30.07 -82.8,80.172 0,57.496 44.3,90.199 119.74,90.199 h 52.74 v 3.695 c 0,31.118 -23.73,50.633 -70.16,50.633 -29.01,0 -56.43,-7.91 -82.8,-24.789 v 58.551 c 27.95,17.402 59.59,25.844 97.04,25.844 87.04,0 124.49,-52.223 124.49,-124.485 V 309.711 H 1573 v 41.141"
         style="fill:#ffffff;fill-opacity:1;fill-rule:nonzero;stroke:none"
         id="path40" /><path
         d="m 1705.35,697.395 h 71.74 V 309.711 h -71.74 v 387.684"
         style="fill:#ffffff;fill-opacity:1;fill-rule:nonzero;stroke:none"
         id="path42" /><path
         d="m 1986.45,678.93 h 72.26 V 378.801 h 167.73 v -69.09 H 1986.45 V 678.93"
         style="fill:#ffffff;fill-opacity:1;fill-rule:nonzero;stroke:none"
         id="path44" /><path
         d="m 2269.65,581.352 h 71.74 V 309.711 h -71.74 z m -1.05,103.91 h 73.85 v -61.715 h -73.85 v 61.715"
         style="fill:#ffffff;fill-opacity:1;fill-rule:nonzero;stroke:none"
         id="path46" /><path
         d="m 2520.7,303.379 c -58.55,0 -97.05,36.391 -97.05,110.242 v 106.547 h -35.86 v 61.184 h 35.86 v 79.121 h 70.67 v -79.121 h 65.41 v -61.184 h -66.98 V 408.871 c 0,-25.851 14.24,-42.73 42.72,-42.73 7.92,0 16.36,1.07 24.26,3.699 v -58.551 c -11.59,-4.75 -25.31,-7.91 -39.03,-7.91"
         style="fill:#ffffff;fill-opacity:1;fill-rule:nonzero;stroke:none"
         id="path48" /><path
         d="m 2784.41,472.172 c -5.28,34.281 -27.96,59.074 -61.2,59.074 -33.22,0 -57.48,-24.266 -63.28,-59.074 z m -190.95,-30.074 c 0,80.175 54.87,145.586 132.39,145.586 74.91,0 125.02,-55.911 125.02,-148.743 0,-4.75 0,-10.031 -0.53,-14.769 h -191.47 c 2.64,-34.293 33.76,-60.133 81.22,-60.133 34.29,0 67,12.133 92.84,31.641 v -62.231 c -29.54,-20.57 -63.29,-30.07 -96.53,-30.07 -86.5,0 -142.94,60.133 -142.94,138.719"
         style="fill:#ffffff;fill-opacity:1;fill-rule:nonzero;stroke:none"
         id="path50" /><path
         d="m 2904.11,581.352 h 67.51 v -55.911 c 16.88,40.09 50.64,62.243 98.11,62.243 l 3.68,-0.528 v -69.629 c -6.32,1.055 -13.18,2.114 -20.03,2.114 -46.41,0 -77.55,-38.504 -77.55,-94.95 v -114.98 h -71.72 v 271.641"
         style="fill:#ffffff;fill-opacity:1;fill-rule:nonzero;stroke:none"
         id="path52" /><path
         d="m 3198.4,357.711 c 35.35,0 68.05,22.68 68.05,52.219 v 18.461 h -55.4 c -36.38,0 -54.84,-12.141 -54.84,-36.403 0,-21.629 14.77,-34.277 42.19,-34.277 z m 70.68,-6.859 c -20.57,-29.543 -53.8,-47.473 -93.35,-47.473 -51.69,0 -82.83,30.07 -82.83,80.172 0,57.496 44.32,90.199 119.74,90.199 h 52.74 v 3.695 c 0,31.118 -23.73,50.633 -70.14,50.633 -29.01,0 -56.45,-7.91 -82.82,-24.789 v 58.551 c 27.96,17.402 59.61,25.844 97.06,25.844 87.04,0 124.49,-52.223 124.49,-124.485 V 309.711 h -64.89 v 41.141"
         style="fill:#ffffff;fill-opacity:1;fill-rule:nonzero;stroke:none"
         id="path54" /><path
         d="m 3385.61,445.793 c 0,76.48 58.03,141.891 141.37,141.891 23.73,0 52.21,-5.274 71.21,-14.239 v -63.832 c -21.11,8.969 -42.2,14.246 -61.72,14.246 -52.22,0 -81.23,-34.285 -81.23,-77.539 0,-43.781 29.01,-78.59 82.28,-78.59 17.94,0 39.04,4.219 60.67,12.661 V 316.57 c -17.94,-8.441 -47.48,-13.191 -71.21,-13.191 -83.88,0 -141.37,64.883 -141.37,142.414"
         style="fill:#ffffff;fill-opacity:1;fill-rule:nonzero;stroke:none"
         id="path56" /><path
         d="m 3623.99,212.66 v 60.649 c 15.31,-7.379 31.66,-10.539 50.64,-10.539 30.06,0 51.17,13.71 65.41,42.191 l -121.85,276.391 h 79.65 l 75.96,-198.852 60.66,198.852 h 78.6 L 3809.14,308.66 C 3782.24,236.922 3738.99,200 3679.91,200 c -21.11,0 -40.09,4.738 -55.92,12.66"
         style="fill:#ffffff;fill-opacity:1;fill-rule:nonzero;stroke:none"
         id="path58" /><path
         d="m 4214.16,491.684 c 41.15,0 67.52,25.843 67.52,61.187 0,36.918 -26.37,61.184 -67.52,61.184 h -61.7 V 491.684 Z M 4080.18,678.93 h 138.73 c 80.7,0 136.61,-52.742 136.61,-123.426 0,-71.734 -55.91,-129.223 -141.36,-129.223 h -61.7 v -116.57 h -72.28 V 678.93"
         style="fill:#ffffff;fill-opacity:1;fill-rule:nonzero;stroke:none"
         id="path60" /><path
         d="m 4406.12,581.352 h 67.51 v -55.911 c 16.88,40.09 50.64,62.243 98.12,62.243 l 3.69,-0.528 v -69.629 c -6.33,1.055 -13.19,2.114 -20.04,2.114 -46.42,0 -77.54,-38.504 -77.54,-94.95 v -114.98 h -71.74 v 271.641"
         style="fill:#ffffff;fill-opacity:1;fill-rule:nonzero;stroke:none"
         id="path62" /><path
         d="m 4736.29,367.211 c 39.56,0 71.21,34.809 71.21,78.055 0,43.25 -31.65,78.593 -71.21,78.593 -39.55,0 -71.2,-35.343 -71.2,-79.121 0,-42.718 31.65,-77.527 71.2,-77.527 z m -140.83,78.582 c 0,78.066 62.77,141.891 140.83,141.891 78.07,0 140.83,-63.825 140.83,-142.418 0,-78.594 -62.76,-141.887 -140.83,-141.887 -78.06,0 -140.83,63.293 -140.83,142.414"
         style="fill:#ffffff;fill-opacity:1;fill-rule:nonzero;stroke:none"
         id="path64" /><path
         d="m 5052.72,384.609 c 37.45,0 68.57,26.903 68.57,71.211 0,42.196 -31.12,71.735 -68.57,71.735 -37.97,0 -67.51,-31.653 -67.51,-71.735 0,-41.672 28.49,-71.211 67.51,-71.211 z M 4938.8,228.48 l -0.54,65.93 c 28.5,-19.512 58.03,-32.172 96.01,-32.172 44.3,0 83.34,23.731 83.34,73.84 v 20.051 c -19.52,-21.629 -46.96,-32.707 -77.02,-32.707 -70.14,0 -125.53,58.019 -125.53,131.336 0,69.629 52.75,132.926 121.84,132.926 32.7,0 61.19,-15.301 81.76,-40.09 v 33.758 h 66.47 V 338.719 C 5185.13,254.852 5125.52,200 5040.59,200 c -41.66,0 -77.01,11.602 -101.79,28.48"
         style="fill:#ffffff;fill-opacity:1;fill-rule:nonzero;stroke:none"
         id="path66" /><path
         d="m 5255.22,581.352 h 67.52 v -55.911 c 16.88,40.09 50.64,62.243 98.11,62.243 l 3.7,-0.528 v -69.629 c -6.34,1.055 -13.19,2.114 -20.04,2.114 -46.43,0 -77.54,-38.504 -77.54,-94.95 v -114.98 h -71.75 v 271.641"
         style="fill:#ffffff;fill-opacity:1;fill-rule:nonzero;stroke:none"
         id="path68" /><path
         d="m 5549.54,357.711 c 35.34,0 68.04,22.68 68.04,52.219 v 18.461 h -55.39 c -36.39,0 -54.85,-12.141 -54.85,-36.403 0,-21.629 14.77,-34.277 42.2,-34.277 z m 70.67,-6.859 c -20.57,-29.543 -53.8,-47.473 -93.35,-47.473 -51.69,0 -82.82,30.07 -82.82,80.172 0,57.496 44.31,90.199 119.73,90.199 h 52.75 v 3.695 c 0,31.118 -23.73,50.633 -70.14,50.633 -29.02,0 -56.45,-7.91 -82.83,-24.789 v 58.551 c 27.96,17.402 59.61,25.844 97.07,25.844 87.03,0 124.48,-52.223 124.48,-124.485 V 309.711 h -64.89 v 41.141"
         style="fill:#ffffff;fill-opacity:1;fill-rule:nonzero;stroke:none"
         id="path70" /><path
         d="m 6047.42,524.914 c -30.6,0 -51.17,-25.844 -51.17,-69.094 V 309.711 h -71.73 v 149.266 c 0,40.621 -19.52,65.937 -49.58,65.937 -29.55,0 -50.64,-25.316 -50.64,-69.094 V 309.711 h -71.74 v 271.641 h 69.63 v -45.36 c 15.3,32.699 44.83,51.692 81.22,51.692 37.99,0 65.41,-21.102 78.6,-56.438 15.82,34.813 48.53,56.438 88.09,56.438 58.54,0 98.63,-48.532 98.63,-114.985 V 309.711 H 6097 v 147.687 c 0,42.2 -20.05,67.516 -49.58,67.516"
         style="fill:#ffffff;fill-opacity:1;fill-rule:nonzero;stroke:none"
         id="path72" /></g></g></svg>
