<?xml version="1.0" encoding="UTF-8" standalone="no"?>
<!-- Created with Inkscape (http://www.inkscape.org/) -->

<svg
   width="123.42925mm"
   height="29.088184mm"
   viewBox="0 0 123.42925 29.088184"
   version="1.1"
   id="svg1399"
   inkscape:version="1.1.2 (0a00cf5339, 2022-02-04)"
   sodipodi:docname="project-logo-white.svg"
   xmlns:inkscape="http://www.inkscape.org/namespaces/inkscape"
   xmlns:sodipodi="http://sodipodi.sourceforge.net/DTD/sodipodi-0.dtd"
   xmlns="http://www.w3.org/2000/svg"
   xmlns:svg="http://www.w3.org/2000/svg">
  <sodipodi:namedview
     id="namedview1401"
     pagecolor="#ffffff"
     bordercolor="#666666"
     borderopacity="1.0"
     inkscape:pageshadow="2"
     inkscape:pageopacity="0"
     inkscape:pagecheckerboard="true"
     inkscape:document-units="mm"
     showgrid="false"
     fit-margin-top="0"
     fit-margin-left="0"
     fit-margin-right="0"
     fit-margin-bottom="0"
     inkscape:zoom="0.77504209"
     inkscape:cx="241.27722"
     inkscape:cy="138.70214"
     inkscape:window-width="1850"
     inkscape:window-height="1016"
     inkscape:window-x="70"
     inkscape:window-y="27"
     inkscape:window-maximized="1"
     inkscape:current-layer="layer1" />
  <defs
     id="defs1396" />
  <g
     inkscape:label="Layer 1"
     inkscape:groupmode="layer"
     id="layer1"
     transform="translate(-41.186653,-111.76184)">
    <g
       id="g268"
       transform="matrix(0.35277777,0,0,-0.35277777,47.27595,127.6144)">
      <path
         d="m 0,0 c -1.74,-0.39 -2.61,-0.587 -4.348,-0.988 -1.897,8.233 -2.845,12.349 -4.742,20.581 1.789,0.412 2.684,0.616 4.475,1.017 C 2.296,22.157 7.433,18.986 8.733,12.73 10.042,6.434 6.716,1.504 0,0 m -5.999,26.787 c -4.511,-1.01 -6.763,-1.533 -11.262,-2.613 2.615,-10.891 5.23,-21.781 7.844,-32.672 4.298,1.032 6.45,1.531 10.76,2.496 C 11.178,-3.799 17.52,4.105 15.559,14.115 13.586,24.182 3.533,29.062 -5.999,26.787"
         style="fill:#ffffff;fill-opacity:1;fill-rule:nonzero;stroke:none"
         id="path270" />
    </g>
    <g
       id="g272"
       transform="matrix(0.35277777,0,0,-0.35277777,53.31603,116.47202)">
      <path
         d="m 0,0 c 2.104,-11.001 4.208,-22.001 6.311,-33.002 2.577,0.493 3.866,0.733 6.447,1.202 C 10.755,-20.78 8.751,-9.761 6.748,1.259 4.047,0.768 2.697,0.516 0,0"
         style="fill:#ffffff;fill-opacity:1;fill-rule:nonzero;stroke:none"
         id="path274" />
    </g>
    <g
       id="g276"
       transform="matrix(0.35277777,0,0,-0.35277777,64.51175,119.71384)">
      <path
         d="m 0,0 c 0.339,-2.259 0.509,-3.388 0.848,-5.647 2.696,0.405 4.045,0.601 6.743,0.981 0.372,-2.642 0.558,-3.963 0.93,-6.605 -1.539,-0.994 -3.19,-1.525 -5.023,-1.796 -7.215,-1.069 -12.815,2.557 -13.873,8.95 -1.073,6.492 3.367,11.768 10.936,12.885 3.198,0.472 7.149,0.208 10.015,-1.102 -0.358,2.664 -0.537,3.996 -0.895,6.66 -3.419,1.044 -7.847,1.077 -11.006,0.622 -9.873,-1.421 -17.743,-9.827 -15.933,-20.135 1.74,-9.906 11.156,-15.767 20.865,-14.274 4.292,0.66 9.271,2.64 11.858,4.968 C 14.604,-7.946 14.172,-4.672 13.31,1.876 7.981,1.174 5.319,0.799 0,0"
         style="fill:#ffffff;fill-opacity:1;fill-rule:nonzero;stroke:none"
         id="path278" />
    </g>
    <g
       id="g280"
       transform="matrix(0.35277777,0,0,-0.35277777,70.63756,113.74854)">
      <path
         d="m 0,0 c 1.374,-11.115 2.748,-22.231 4.121,-33.346 2.598,0.321 3.897,0.476 6.496,0.773 C 9.345,-21.446 8.072,-10.318 6.799,0.809 4.078,0.498 2.719,0.336 0,0"
         style="fill:#ffffff;fill-opacity:1;fill-rule:nonzero;stroke:none"
         id="path282" />
    </g>
    <g
       id="g284"
       transform="matrix(0.35277777,0,0,-0.35277777,74.66978,113.2814)">
      <path
         d="m 0,0 c 0.264,-2.442 0.396,-3.662 0.66,-6.104 3.958,0.428 5.939,0.629 9.901,1.004 1.035,-10.935 1.553,-16.403 2.588,-27.338 2.644,0.25 3.966,0.369 6.611,0.595 -0.934,10.944 -1.401,16.416 -2.335,27.361 3.964,0.338 5.948,0.494 9.916,0.78 -0.177,2.45 -0.265,3.674 -0.441,6.124 C 16.128,1.646 10.746,1.162 0,0"
         style="fill:#ffffff;fill-opacity:1;fill-rule:nonzero;stroke:none"
         id="path286" />
    </g>
    <g
       id="g288"
       transform="matrix(0.35277777,0,0,-0.35277777,88.11573,119.41225)">
      <path
         d="M 0,0 C 1.879,5.976 2.841,8.962 4.809,14.925 7.358,9.192 8.61,6.32 11.072,0.565 6.642,0.373 4.427,0.26 0,0 M 8.663,20.968 C 5.324,20.816 3.655,20.731 0.317,20.542 -3.557,9.139 -7.242,-2.328 -10.733,-13.854 c 2.876,0.215 4.315,0.315 7.193,0.501 0.86,2.885 1.295,4.328 2.176,7.211 5.761,0.351 8.642,0.498 14.407,0.735 1.17,-2.778 1.749,-4.169 2.899,-6.951 2.86,0.107 4.291,0.153 7.152,0.232 C 18.47,-1.015 13.658,10.018 8.663,20.968"
         style="fill:#ffffff;fill-opacity:1;fill-rule:nonzero;stroke:none"
         id="path290" />
    </g>
    <g
       id="g292"
       transform="matrix(0.35277777,0,0,-0.35277777,100.00631,121.3955)">
      <path
         d="m 0,0 c -0.138,10.923 -0.208,16.385 -0.346,27.308 -2.777,-0.036 -4.164,-0.06 -6.941,-0.12 0.246,-11.198 0.491,-22.395 0.736,-33.592 8.803,0.193 13.206,0.222 22.009,0.145 0.022,2.516 0.033,3.774 0.055,6.29 C 9.308,0.085 6.205,0.079 0,0"
         style="fill:#ffffff;fill-opacity:1;fill-rule:nonzero;stroke:none"
         id="path294" />
    </g>
    <g
       id="g296"
       transform="matrix(0.35277777,0,0,-0.35277777,112.89494,115.08204)">
      <path
         d="M 0,0 C 0.081,2.198 2.637,3.319 5.995,3.169 9.26,3.023 12.626,1.737 15.139,0.151 15.289,2.779 15.364,4.093 15.514,6.72 12.92,8.21 9.159,9.175 5.921,9.318 -1.474,9.645 -6.759,5.639 -6.924,-0.358 -7.22,-11.154 9.158,-10.205 8.884,-15.718 8.767,-18.065 5.88,-19.259 2.073,-19.104 c -3.745,0.152 -7.264,1.515 -10.193,3.412 -0.071,-2.667 -0.106,-4 -0.176,-6.667 2.579,-1.509 6.213,-2.779 10.51,-2.956 8.212,-0.338 13.289,3.568 13.65,9.657 C 16.526,-4.497 -0.204,-5.566 0,0"
         style="fill:#ffffff;fill-opacity:1;fill-rule:nonzero;stroke:none"
         id="path298" />
    </g>
    <g
       id="g300"
       transform="matrix(0.35277777,0,0,-0.35277777,125.83892,118.02012)">
      <path
         d="M 0,0 C 6.182,5.493 9.33,8.207 15.734,13.568 12.423,13.92 10.767,14.087 7.454,14.403 1.368,9.1 -1.622,6.417 -7.499,0.995 c 0.448,5.839 0.672,8.758 1.12,14.597 -2.771,0.213 -4.156,0.313 -6.928,0.499 -0.753,-11.174 -1.507,-22.349 -2.261,-33.523 2.648,-0.179 3.972,-0.274 6.619,-0.477 0.343,4.478 0.515,6.718 0.859,11.197 1.171,1.125 1.759,1.687 2.939,2.808 3.992,-6.044 5.943,-9.079 9.758,-15.174 3.319,-0.318 4.977,-0.486 8.293,-0.843 C 7.894,-11.908 5.314,-7.922 0,0"
         style="fill:#ffffff;fill-opacity:1;fill-rule:nonzero;stroke:none"
         id="path302" />
    </g>
    <g
       id="g304"
       transform="matrix(0.35277777,0,0,-0.35277777,133.17949,113.43045)">
      <path
         d="m 0,0 c -1.261,-11.129 -2.522,-22.257 -3.783,-33.386 2.599,-0.295 3.898,-0.448 6.496,-0.766 1.362,11.117 2.725,22.234 4.087,33.35 C 4.081,-0.469 2.721,-0.308 0,0"
         style="fill:#ffffff;fill-opacity:1;fill-rule:nonzero;stroke:none"
         id="path306" />
    </g>
    <g
       id="g308"
       transform="matrix(0.35277777,0,0,-0.35277777,139.05638,123.88882)">
      <path
         d="m 0,0 c 1.527,10.817 2.291,16.225 3.817,27.042 -2.755,0.389 -4.134,0.577 -6.892,0.94 C -4.538,16.878 -6.002,5.774 -7.465,-5.33 1.287,-6.483 5.656,-7.126 14.378,-8.548 14.783,-6.065 14.985,-4.824 15.39,-2.34 9.242,-1.338 6.163,-0.87 0,0"
         style="fill:#ffffff;fill-opacity:1;fill-rule:nonzero;stroke:none"
         id="path310" />
    </g>
    <g
       id="g312"
       transform="matrix(0.35277777,0,0,-0.35277777,148.50154,125.4021)">
      <path
         d="m 0,0 c 1.929,10.753 2.895,16.129 4.824,26.881 -2.739,0.491 -4.11,0.73 -6.852,1.196 C -3.905,17.036 -5.781,5.994 -7.657,-5.048 1.053,-6.528 5.4,-7.335 14.074,-9.084 c 0.497,2.466 0.745,3.699 1.242,6.166 C 9.2,-1.685 6.136,-1.101 0,0"
         style="fill:#ffffff;fill-opacity:1;fill-rule:nonzero;stroke:none"
         id="path314" />
    </g>
    <g
       id="g316"
       transform="matrix(0.35277777,0,0,-0.35277777,158.77708,120.83998)">
      <path
         d="m 0,0 c 0.465,2.15 3.191,2.802 6.501,2.059 3.207,-0.72 6.306,-2.58 8.528,-4.588 0.609,2.56 0.913,3.841 1.522,6.401 C 14.231,5.801 10.676,7.416 7.494,8.129 0.229,9.756 -5.691,6.743 -6.905,0.867 -9.09,-9.71 7.29,-11.667 6.053,-17.047 5.526,-19.337 2.447,-20 -1.284,-19.178 c -3.692,0.813 -6.925,2.774 -9.501,5.161 -0.537,-2.613 -0.805,-3.92 -1.342,-6.534 2.288,-1.939 5.662,-3.832 9.885,-4.765 8.072,-1.782 13.786,1.164 15.21,7.096 C 15.578,-7.349 -1.177,-5.444 0,0"
         style="fill:#ffffff;fill-opacity:1;fill-rule:nonzero;stroke:none"
         id="path318" />
    </g>
    <g
       id="g320"
       transform="matrix(0.35277777,0,0,-0.35277777,78.82557,139.72463)">
      <path
         d="M 0,0 H -4.71 V 21.08 H 0 c 6.96,0 11.1,-4.59 11.1,-10.56 C 11.1,4.52 7,0 0,0 M 0,23.86 H -7.59 V -2.74 H 0 c 8.51,0 14.14,5.66 14.14,13.26 0,7.6 -5.63,13.34 -14.14,13.34"
         style="fill:#ffffff;fill-opacity:1;fill-rule:nonzero;stroke:none"
         id="path322" />
    </g>
    <g
       id="g324"
       transform="matrix(0.35277777,0,0,-0.35277777,86.73485,139.72463)">
      <path
         d="m 0,0 v 9.5 h 12.35 v 2.77 H 0 v 8.85 h 14.37 v 2.74 H -2.88 V -2.74 H 14.94 V 0 Z"
         style="fill:#ffffff;fill-opacity:1;fill-rule:nonzero;stroke:none"
         id="path326" />
    </g>
    <g
       id="g328"
       transform="matrix(0.35277777,0,0,-0.35277777,92.76738,131.30735)">
      <path
         d="M 0,0 V -2.78 H 8.67 V -26.6 h 2.92 v 23.82 h 8.7 V 0 Z"
         style="fill:#ffffff;fill-opacity:1;fill-rule:nonzero;stroke:none"
         id="path330" />
    </g>
    <g
       id="g332"
       transform="matrix(0.35277777,0,0,-0.35277777,102.38058,135.98519)">
      <path
         d="m 0,0 v 10.6 h 6.38 c 3.54,0 6.39,-1.67 6.39,-5.21 C 12.77,2.01 10.03,0 6.31,0 Z m 9.46,-2.28 c 3.53,1.06 6.31,4.06 6.31,7.82 0,4.45 -3.61,7.72 -9.31,7.72 h -9.35 v -26.6 H 0 v 10.75 h 6.15 l 7.03,-10.75 h 3.57 z"
         style="fill:#ffffff;fill-opacity:1;fill-rule:nonzero;stroke:none"
         id="path334" />
    </g>
    <g
       id="g336"
       transform="matrix(0.35277777,0,0,-0.35277777,114.05745,139.84814)">
      <path
         d="m 0,0 c -5.78,0 -10.38,4.91 -10.38,10.91 0,6 4.6,10.9 10.38,10.9 5.73,0 10.33,-4.9 10.33,-10.9 C 10.33,4.91 5.73,0 0,0 m 0,24.62 c -7.45,0 -13.42,-6.15 -13.42,-13.71 0,-7.6 5.97,-13.75 13.42,-13.75 7.4,0 13.37,6.15 13.37,13.75 0,7.6 -5.97,13.71 -13.37,13.71"
         style="fill:#ffffff;fill-opacity:1;fill-rule:nonzero;stroke:none"
         id="path338" />
    </g>
    <path
       d="m 120.21371,140.69135 h 1.01952 v -9.38389 h -1.01952 z"
       style="fill:#ffffff;fill-opacity:1;fill-rule:nonzero;stroke:none;stroke-width:0.352778"
       id="path340" />
    <g
       id="g342"
       transform="matrix(0.35277777,0,0,-0.35277777,122.49653,131.30735)">
      <path
         d="M 0,0 V -2.78 H 8.66 V -26.6 h 2.93 v 23.82 h 8.7 V 0 Z"
         style="fill:#ffffff;fill-opacity:1;fill-rule:nonzero;stroke:none"
         id="path344" />
    </g>
    <path
       d="M 71.92407,136.51799 H 57.77345 v -1.02306 h 14.15062 z"
       style="fill:#ffffff;fill-opacity:1;fill-rule:nonzero;stroke:none;stroke-width:0.352778"
       id="path346" />
    <path
       d="m 148.02882,136.51799 h -16.04856 v -1.02306 h 16.04856 z"
       style="fill:#ffffff;fill-opacity:1;fill-rule:nonzero;stroke:none;stroke-width:0.352778"
       id="path348" />
  </g>
</svg>
