<?xml version="1.0" encoding="UTF-8" standalone="no"?>
<!-- Created with Inkscape (http://www.inkscape.org/) -->

<svg
   version="1.1"
   id="svg132"
   width="853.33331"
   height="250.66667"
   viewBox="0 0 853.33331 250.66667"
   sodipodi:docname="project-logo-white.svg"
   inkscape:version="1.2.2 (b0a8486541, 2022-12-01)"
   xmlns:inkscape="http://www.inkscape.org/namespaces/inkscape"
   xmlns:sodipodi="http://sodipodi.sourceforge.net/DTD/sodipodi-0.dtd"
   xmlns="http://www.w3.org/2000/svg"
   xmlns:svg="http://www.w3.org/2000/svg">
  <defs
     id="defs136" />
  <sodipodi:namedview
     id="namedview134"
     pagecolor="#ffffff"
     bordercolor="#666666"
     borderopacity="1.0"
     inkscape:showpageshadow="2"
     inkscape:pageopacity="0.0"
     inkscape:pagecheckerboard="true"
     inkscape:deskcolor="#d1d1d1"
     showgrid="false"
     inkscape:zoom="0.86015627"
     inkscape:cx="279.01907"
     inkscape:cy="97.656674"
     inkscape:window-width="1854"
     inkscape:window-height="1011"
     inkscape:window-x="66"
     inkscape:window-y="32"
     inkscape:window-maximized="1"
     inkscape:current-layer="g140">
    <inkscape:page
       x="0"
       y="0"
       id="page138"
       width="853.33331"
       height="250.66667" />
  </sodipodi:namedview>
  <g
     id="g140"
     inkscape:groupmode="layer"
     inkscape:label="Page 1"
     transform="matrix(1.3333333,0,0,-1.3333333,0,250.66667)">
    <g
       id="g142"
       transform="scale(0.1)">
      <path
         d="m 496.012,876.398 c -29.844,-6.687 -44.762,-10.07 -74.571,-16.937 -32.519,141.179 -48.789,211.769 -81.32,352.939 30.68,7.07 46.027,10.56 76.738,17.43 118.52,26.54 206.61,-27.85 228.918,-135.13 C 668.223,986.73 611.176,902.188 496.012,876.398 Z M 393.141,1335.76 c -77.36,-17.33 -115.993,-26.29 -193.141,-44.81 44.844,-186.76 89.688,-373.52 134.516,-560.278 73.711,17.687 110.617,26.258 184.531,42.808 168.656,37.77 277.414,173.321 243.777,344.97 -33.832,172.64 -206.23,256.33 -369.683,217.31"
         style="fill:#ffffff;fill-opacity:1;fill-rule:nonzero;stroke:none"
         id="path144" />
      <path
         d="m 789.625,1418.04 c 36.078,-188.65 72.152,-377.3 108.223,-565.95 44.195,8.449 66.308,12.582 110.562,20.621 -34.347,188.969 -68.707,377.939 -103.062,566.909 -46.321,-8.42 -69.469,-12.74 -115.723,-21.58"
         style="fill:#ffffff;fill-opacity:1;fill-rule:nonzero;stroke:none"
         id="path146" />
      <path
         d="m 1333.86,1260.45 c 5.82,-38.74 8.73,-58.1 14.54,-96.84 46.24,6.95 69.36,10.32 115.64,16.83 6.38,-45.31 9.56,-67.97 15.94,-113.27 -26.39,-17.05 -54.7,-26.15 -86.14,-30.81 -123.73,-18.32 -219.77,43.85 -237.89,153.49 -18.41,111.33 57.74,201.8 187.53,220.96 54.84,8.1 122.59,3.57 171.74,-18.9 -6.14,45.68 -9.21,68.52 -15.34,114.21 -58.63,17.9 -134.58,18.47 -188.75,10.67 -169.31,-24.37 -304.27,-168.52 -273.22,-345.29 29.83,-169.89 191.31,-270.383 357.8,-244.777 73.61,11.32 158.99,45.269 203.36,85.187 -14.78,112.28 -22.17,168.42 -36.96,280.71 -91.39,-12.04 -137.04,-18.47 -228.25,-32.17"
         style="fill:#ffffff;fill-opacity:1;fill-rule:nonzero;stroke:none"
         id="path148" />
      <path
         d="m 1631.64,1550.43 c 23.56,-190.62 47.12,-381.23 70.67,-571.848 44.55,5.508 66.82,8.156 111.4,13.254 -21.82,190.824 -43.65,381.644 -65.48,572.464 -46.65,-5.34 -69.97,-8.11 -116.59,-13.87"
         style="fill:#ffffff;fill-opacity:1;fill-rule:nonzero;stroke:none"
         id="path150" />
      <path
         d="m 1827.65,1573.14 c 4.53,-41.87 6.79,-62.81 11.32,-104.68 67.88,7.34 101.84,10.78 169.79,17.21 17.75,-187.52 26.63,-281.28 44.38,-468.81 45.34,4.29 68.01,6.34 113.38,10.21 -16.02,187.68 -24.04,281.52 -40.06,469.2 67.99,5.8 102,8.48 170.05,13.38 -3.03,42.01 -4.54,63.01 -7.56,105.02 -184.73,-13.3 -277.02,-21.61 -461.3,-41.53"
         style="fill:#ffffff;fill-opacity:1;fill-rule:nonzero;stroke:none"
         id="path152" />
      <path
         d="m 2481.27,1275.11 c 32.22,102.49 48.71,153.68 82.47,255.95 43.71,-98.32 65.18,-147.58 107.39,-246.26 -75.97,-3.3 -113.94,-5.24 -189.86,-9.69 z m 148.56,359.58 c -57.26,-2.6 -85.88,-4.06 -143.12,-7.31 -66.45,-195.54 -129.63,-392.19 -189.5,-589.85 49.32,3.68 74,5.4 123.35,8.59 14.75,49.49 22.21,74.22 37.32,123.66 98.79,6.02 148.2,8.54 247.06,12.61 20.06,-47.64 30,-71.49 49.71,-119.21 49.05,1.84 73.59,2.64 122.66,3.98 -79.31,190.55 -161.82,379.75 -247.48,567.53"
         style="fill:#ffffff;fill-opacity:1;fill-rule:nonzero;stroke:none"
         id="path154" />
      <path
         d="m 3059.28,1178.7 c -2.38,187.32 -3.56,280.98 -5.94,468.3 -47.61,-0.61 -71.41,-1.02 -119.02,-2.06 4.21,-192.02 8.42,-384.04 12.62,-576.05 150.95,3.3 226.46,3.79 377.43,2.49 0.38,43.14 0.56,64.71 0.94,107.85 -106.41,0.93 -159.62,0.82 -266.03,-0.53"
         style="fill:#ffffff;fill-opacity:1;fill-rule:nonzero;stroke:none"
         id="path156" />
      <path
         d="m 3685.81,1485.61 c 1.38,37.69 45.21,56.91 102.81,54.34 55.98,-2.5 113.7,-24.56 156.8,-51.76 2.57,45.06 3.86,67.6 6.43,112.66 -44.49,25.56 -108.98,42.1 -164.51,44.55 -126.81,5.6 -217.45,-63.09 -220.27,-165.94 -5.08,-185.13 275.79,-168.85 271.08,-263.4 -2,-40.25 -51.52,-60.72 -116.79,-58.07 -64.23,2.6 -124.57,25.98 -174.8,58.53 -1.22,-45.74 -1.82,-68.61 -3.02,-114.35 44.22,-25.87 106.54,-47.66 180.23,-50.69 140.82,-5.79 227.89,61.19 234.09,165.61 11.35,191.39 -275.56,173.06 -272.05,268.52"
         style="fill:#ffffff;fill-opacity:1;fill-rule:nonzero;stroke:none"
         id="path158" />
      <path
         d="m 4315.02,1342.78 c 106.02,94.2 160,140.75 269.83,232.67 -56.78,6.04 -85.18,8.91 -142.01,14.32 -104.35,-90.93 -155.63,-136.93 -256.41,-229.92 7.68,100.13 11.52,150.19 19.2,250.32 -47.51,3.65 -71.27,5.36 -118.8,8.56 -12.92,-191.63 -25.85,-383.26 -38.79,-574.89 45.42,-3.06 68.12,-4.7 113.51,-8.18 5.9,76.8 8.84,115.21 14.74,192.02 20.08,19.3 30.16,28.93 50.39,48.16 68.46,-103.64 101.93,-155.7 167.36,-260.23 56.9,-5.45 85.34,-8.33 142.2,-14.45 -85.85,137.41 -130.09,205.76 -221.22,341.62"
         style="fill:#ffffff;fill-opacity:1;fill-rule:nonzero;stroke:none"
         id="path160" />
      <path
         d="m 4671.85,1565.89 c -21.62,-190.84 -43.25,-381.69 -64.88,-572.531 44.58,-5.05 66.86,-7.675 111.41,-13.132 23.36,190.643 46.72,381.273 70.08,571.913 -46.62,5.72 -69.94,8.47 -116.61,13.75"
         style="fill:#ffffff;fill-opacity:1;fill-rule:nonzero;stroke:none"
         id="path162" />
      <path
         d="m 4957.53,1057.5 c 26.19,185.5 39.29,278.25 65.47,463.73 -47.26,6.67 -70.9,9.9 -118.21,16.13 -25.08,-190.42 -50.18,-380.84 -75.26,-571.262 150.07,-19.766 225.01,-30.805 374.57,-55.196 6.94,42.586 10.42,63.879 17.36,106.458 -105.44,17.2 -158.23,25.23 -263.93,40.14"
         style="fill:#ffffff;fill-opacity:1;fill-rule:nonzero;stroke:none"
         id="path164" />
      <path
         d="m 5416.67,983.938 c 33.09,184.392 49.65,276.592 82.73,460.972 -46.97,8.43 -70.48,12.53 -117.51,20.52 -32.18,-189.35 -64.36,-378.7 -96.53,-568.055 149.37,-25.375 223.92,-39.227 372.66,-69.215 8.52,42.289 12.78,63.438 21.31,105.735 -104.89,21.156 -157.44,31.164 -262.66,50.043"
         style="fill:#ffffff;fill-opacity:1;fill-rule:nonzero;stroke:none"
         id="path166" />
      <path
         d="m 5916.17,1205.71 c 7.98,36.87 54.73,48.05 111.49,35.31 54.99,-12.35 108.13,-44.24 146.24,-78.69 10.44,43.91 15.66,65.87 26.1,109.78 -39.78,33.08 -100.75,60.77 -155.31,72.99 -124.59,27.92 -226.11,-23.76 -246.93,-124.53 -37.46,-181.38 243.42,-214.94 222.21,-307.199 -9.03,-39.281 -61.83,-50.633 -125.82,-36.543 -63.31,13.949 -118.75,47.57 -162.93,88.508 -9.21,-44.816 -13.81,-67.231 -23.01,-112.047 39.23,-33.269 97.1,-65.719 169.52,-81.711 138.42,-30.566 236.4,19.953 260.82,121.676 44.77,186.426 -242.57,219.096 -222.38,312.456"
         style="fill:#ffffff;fill-opacity:1;fill-rule:nonzero;stroke:none"
         id="path168" />
      <path
         d="m 2029.67,287.711 h -80.78 v 361.5 h 80.78 c 119.35,0 190.35,-78.723 190.35,-181.102 0,-102.89 -70.31,-180.398 -190.35,-180.398 z m 0,409.168 H 1899.5 v -456.16 h 130.17 c 145.93,0 242.48,97.062 242.48,227.39 0,130.332 -96.55,228.77 -242.48,228.77"
         style="fill:#ffffff;fill-opacity:1;fill-rule:nonzero;stroke:none"
         id="path170" />
      <path
         d="m 2414.14,287.711 v 162.91 h 211.79 v 47.508 h -211.79 v 151.762 h 246.43 v 46.988 h -295.82 v -456.16 h 305.59 v 46.992 h -256.2"
         style="fill:#ffffff;fill-opacity:1;fill-rule:nonzero;stroke:none"
         id="path172" />
      <path
         d="m 2707.39,696.879 v -47.668 h 148.67 V 240.719 h 50.08 v 408.492 h 149.2 v 47.668 h -347.95"
         style="fill:#ffffff;fill-opacity:1;fill-rule:nonzero;stroke:none"
         id="path174" />
      <path
         d="m 3174.69,469.488 v 181.774 h 109.41 c 60.71,0 109.58,-28.633 109.58,-89.34 0,-57.961 -46.99,-92.434 -110.78,-92.434 z m 162.23,-39.097 c 60.54,18.168 108.21,69.621 108.21,134.097 0,76.313 -61.91,132.391 -159.66,132.391 h -160.34 v -456.16 h 49.56 V 425.07 h 105.47 l 120.55,-184.351 h 61.23 l -125.02,189.672"
         style="fill:#ffffff;fill-opacity:1;fill-rule:nonzero;stroke:none"
         id="path176" />
      <path
         d="m 3742.32,281.711 c -99.12,0 -178.01,84.199 -178.01,187.09 0,102.89 78.89,186.918 178.01,186.918 98.26,0 177.15,-84.028 177.15,-186.918 0,-102.891 -78.89,-187.09 -177.15,-187.09 z m 0,422.199 c -127.76,0 -230.14,-105.469 -230.14,-235.109 0,-130.332 102.38,-235.801 230.14,-235.801 126.9,0 229.28,105.469 229.28,235.801 0,130.328 -102.38,235.109 -229.28,235.109"
         style="fill:#ffffff;fill-opacity:1;fill-rule:nonzero;stroke:none"
         id="path178" />
      <path
         d="m 4041.57,696.879 v -456.16 h 49.57 v 456.16 h -49.57"
         style="fill:#ffffff;fill-opacity:1;fill-rule:nonzero;stroke:none"
         id="path180" />
      <path
         d="m 4152.55,696.879 v -47.668 h 148.5 V 240.719 h 50.25 v 408.492 h 149.2 v 47.668 h -347.95"
         style="fill:#ffffff;fill-opacity:1;fill-rule:nonzero;stroke:none"
         id="path182" />
      <path
         d="m 1694.18,443.59 h -687.87 v 49.738 h 687.87 V 443.59"
         style="fill:#ffffff;fill-opacity:1;fill-rule:nonzero;stroke:none"
         id="path184" />
      <path
         d="m 5393.69,443.59 h -780.14 v 49.738 h 780.14 V 443.59"
         style="fill:#ffffff;fill-opacity:1;fill-rule:nonzero;stroke:none"
         id="path186" />
    </g>
  </g>
</svg>
