<?xml version="1.0" encoding="UTF-8" standalone="no"?>
<!-- Created with Inkscape (http://www.inkscape.org/) -->

<svg
   width="127.36307"
   height="64"
   viewBox="0 0 33.698145 16.933334"
   version="1.1"
   id="svg1442"
   inkscape:version="1.1.2 (0a00cf5339, 2022-02-04)"
   sodipodi:docname="rocket-logo.svg"
   xmlns:inkscape="http://www.inkscape.org/namespaces/inkscape"
   xmlns:sodipodi="http://sodipodi.sourceforge.net/DTD/sodipodi-0.dtd"
   xmlns="http://www.w3.org/2000/svg"
   xmlns:svg="http://www.w3.org/2000/svg">
  <sodipodi:namedview
     id="namedview1444"
     pagecolor="#ffffff"
     bordercolor="#666666"
     borderopacity="1.0"
     inkscape:pageshadow="2"
     inkscape:pageopacity="0.0"
     inkscape:pagecheckerboard="0"
     inkscape:document-units="mm"
     showgrid="false"
     fit-margin-top="0"
     fit-margin-left="0"
     fit-margin-right="0"
     fit-margin-bottom="0"
     units="px"
     inkscape:zoom="3.1001683"
     inkscape:cx="14.837904"
     inkscape:cy="48.545751"
     inkscape:window-width="1850"
     inkscape:window-height="1016"
     inkscape:window-x="70"
     inkscape:window-y="27"
     inkscape:window-maximized="1"
     inkscape:current-layer="g2182" />
  <defs
     id="defs1439">
    <clipPath
       clipPathUnits="userSpaceOnUse"
       id="clipPath338">
      <path
         d="M 0,584.983 H 360 V 0 H 0 Z"
         id="path336" />
    </clipPath>
    <clipPath
       clipPathUnits="userSpaceOnUse"
       id="clipPath326">
      <path
         d="m 207.281,27.341 h 71.522 v 24.572 h -71.522 z"
         id="path324" />
    </clipPath>
    <clipPath
       clipPathUnits="userSpaceOnUse"
       id="clipPath338-3">
      <path
         d="M 0,584.983 H 360 V 0 H 0 Z"
         id="path336-6" />
    </clipPath>
  </defs>
  <g
     inkscape:label="Layer 1"
     inkscape:groupmode="layer"
     id="layer1"
     transform="translate(-118.30323,-76.146086)">
    <g
       id="g2182">
      <g
         id="g2226"
         transform="translate(4.2333363,4.1325801)">
        <g
           id="g320"
           transform="matrix(0.35277777,0,0,-0.35277777,45.179098,94.459521)">
          <g
             id="g322"
             clip-path="url(#clipPath326)">
            <g
               id="g328"
               transform="translate(207.281,32.6957)">
              <path
                 d="m 0,0 c 0,2.022 1.535,3.407 3.361,3.407 0.936,0 1.685,-0.29 2.228,-0.73 L 5.111,1.872 C 4.709,2.209 4.1,2.49 3.37,2.49 2.069,2.49 1.002,1.451 1.002,0.009 c 0,-1.442 1.039,-2.518 2.368,-2.518 0.833,0 1.385,0.281 1.844,0.646 L 5.635,-2.649 C 5.036,-3.117 4.325,-3.426 3.342,-3.426 1.47,-3.426 0,-1.985 0,0"
                 style="fill:#000000;fill-opacity:1;fill-rule:nonzero;stroke:none"
                 id="path330" />
            </g>
          </g>
        </g>
        <g
           id="g340"
           transform="matrix(0.35277777,0,0,-0.35277777,120.39386,83.268775)">
          <path
             d="M 0,0 C 0,1.423 1.039,2.453 2.481,2.453 3.95,2.453 4.961,1.423 4.961,0 4.961,-1.432 3.95,-2.452 2.481,-2.452 1.039,-2.452 0,-1.432 0,0 M 4.053,0 C 4.053,0.964 3.407,1.62 2.481,1.62 1.563,1.62 0.917,0.964 0.917,0 c 0,-0.973 0.665,-1.619 1.564,-1.619 0.936,0 1.572,0.665 1.572,1.619"
             style="fill:#000000;fill-opacity:1;fill-rule:nonzero;stroke:none"
             id="path342" />
        </g>
        <g
           id="g344"
           transform="matrix(0.35277777,0,0,-0.35277777,124.97104,83.044162)">
          <path
             d="m 0,0 v -2.995 h -0.89 v 2.724 c 0,0.861 -0.393,1.282 -1.029,1.282 -0.702,0 -1.208,-0.552 -1.208,-1.32 v -2.686 h -0.889 v 2.668 c 0,0.879 -0.393,1.338 -1.03,1.338 -0.683,0 -1.207,-0.496 -1.207,-1.385 v -2.621 h -0.889 v 4.717 h 0.889 V 1.067 c 0.318,0.487 0.861,0.758 1.488,0.758 0.702,0 1.236,-0.327 1.489,-0.973 0.327,0.646 0.945,0.973 1.61,0.973 C -0.618,1.825 0,1.17 0,0"
             style="fill:#000000;fill-opacity:1;fill-rule:nonzero;stroke:none"
             id="path346" />
        </g>
        <g
           id="g348"
           transform="matrix(0.35277777,0,0,-0.35277777,127.87726,83.044162)">
          <path
             d="m 0,0 v -2.995 h -0.889 v 2.724 c 0,0.861 -0.393,1.282 -1.03,1.282 -0.702,0 -1.207,-0.552 -1.207,-1.32 v -2.686 h -0.89 v 2.668 c 0,0.879 -0.393,1.338 -1.029,1.338 -0.684,0 -1.208,-0.496 -1.208,-1.385 v -2.621 h -0.889 v 4.717 h 0.889 V 1.067 c 0.318,0.487 0.861,0.758 1.488,0.758 0.703,0 1.236,-0.327 1.489,-0.973 0.328,0.646 0.945,0.973 1.61,0.973 C -0.618,1.825 0,1.17 0,0"
             style="fill:#000000;fill-opacity:1;fill-rule:nonzero;stroke:none"
             id="path350" />
        </g>
        <g
           id="g352"
           transform="matrix(0.35277777,0,0,-0.35277777,129.71696,82.436537)">
          <path
             d="m 0,0 v -4.718 h -0.889 v 0.702 c -0.319,-0.496 -0.871,-0.795 -1.573,-0.795 -1.132,0 -1.807,0.655 -1.807,1.947 V 0 h 0.89 v -2.64 c 0,-0.898 0.411,-1.376 1.142,-1.376 0.786,0 1.348,0.571 1.348,1.404 V 0 Z"
             style="fill:#000000;fill-opacity:1;fill-rule:nonzero;stroke:none"
             id="path354" />
        </g>
        <g
           id="g356"
           transform="matrix(0.35277777,0,0,-0.35277777,131.61925,83.096972)">
          <path
             d="m 0,0 v -2.846 h -0.889 v 2.649 c 0,0.843 -0.412,1.358 -1.18,1.358 -0.767,0 -1.301,-0.571 -1.301,-1.376 V -2.846 H -4.259 V 1.872 H -3.37 V 1.198 c 0.309,0.496 0.88,0.768 1.582,0.768 C -0.655,1.966 0,1.273 0,0"
             style="fill:#000000;fill-opacity:1;fill-rule:nonzero;stroke:none"
             id="path358" />
        </g>
        <g
           id="g360"
           transform="matrix(0.35277777,0,0,-0.35277777,131.92324,81.901514)">
          <path
             d="m 0,0 c 0,0.337 0.262,0.599 0.599,0.599 0.337,0 0.59,-0.262 0.59,-0.599 0,-0.337 -0.253,-0.599 -0.59,-0.599 C 0.262,-0.599 0,-0.337 0,0 M 0.14,-1.517 H 1.029 V -6.235 H 0.14 Z"
             style="fill:#000000;fill-opacity:1;fill-rule:nonzero;stroke:none"
             id="path362" />
        </g>
        <g
           id="g364"
           transform="matrix(0.35277777,0,0,-0.35277777,132.82818,83.466825)">
          <path
             d="M 0,0 V 2.125 H -0.815 V 2.921 H 0 v 1.357 l 0.889,0.29 V 2.921 h 1.33 V 2.125 H 0.889 V 0.122 c 0,-0.796 0.421,-1.123 1.18,-1.123 H 2.153 L 2.012,-1.872 H 1.975 C 0.646,-1.872 0,-1.292 0,0"
             style="fill:#000000;fill-opacity:1;fill-rule:nonzero;stroke:none"
             id="path366" />
        </g>
        <g
           id="g368"
           transform="matrix(0.35277777,0,0,-0.35277777,135.42388,82.436537)">
          <path
             d="M 0,0 -1.928,-4.867 C -2.425,-6.178 -3.014,-6.74 -3.988,-6.74 h -0.093 l -0.169,0.843 h 0.103 c 0.562,0 1.021,0.309 1.414,1.301 L -2.696,-4.512 -4.671,0 h 0.973 L -2.237,-3.473 -0.936,0 Z"
             style="fill:#000000;fill-opacity:1;fill-rule:nonzero;stroke:none"
             id="path370" />
        </g>
        <g
           id="g372"
           transform="matrix(0.35277777,0,0,-0.35277777,136.38168,81.756346)">
          <path
             d="M 0,0 H 4.137 V -0.852 H 0.964 V -2.92 H 4.007 V -3.772 H 0.964 V -6.646 H 0 Z"
             style="fill:#000000;fill-opacity:1;fill-rule:nonzero;stroke:none"
             id="path374" />
        </g>
        <g
           id="g376"
           transform="matrix(0.35277777,0,0,-0.35277777,139.58839,82.436537)">
          <path
             d="m 0,0 v -4.718 h -0.889 v 0.702 c -0.318,-0.496 -0.871,-0.795 -1.573,-0.795 -1.133,0 -1.807,0.655 -1.807,1.947 V 0 h 0.889 v -2.64 c 0,-0.898 0.413,-1.376 1.143,-1.376 0.786,0 1.348,0.571 1.348,1.404 V 0 Z"
             style="fill:#000000;fill-opacity:1;fill-rule:nonzero;stroke:none"
             id="path378" />
        </g>
        <g
           id="g380"
           transform="matrix(0.35277777,0,0,-0.35277777,141.45765,83.096972)">
          <path
             d="m 0,0 v -2.846 h -0.889 v 2.649 c 0,0.843 -0.412,1.358 -1.18,1.358 -0.768,0 -1.301,-0.571 -1.301,-1.376 V -2.846 H -4.259 V 1.872 H -3.37 V 1.198 c 0.309,0.496 0.88,0.768 1.582,0.768 C -0.655,1.966 0,1.273 0,0"
             style="fill:#000000;fill-opacity:1;fill-rule:nonzero;stroke:none"
             id="path382" />
        </g>
        <g
           id="g384"
           transform="matrix(0.35277777,0,0,-0.35277777,143.43593,81.617528)">
          <path
             d="m 0,0 v -7.049 h -0.889 v 0.833 c -0.375,-0.646 -0.993,-0.917 -1.713,-0.917 -1.33,0 -2.275,1.02 -2.275,2.443 0,1.442 0.955,2.462 2.275,2.462 0.73,0 1.376,-0.299 1.713,-0.899 V 0 Z m -0.843,-4.681 c 0,0.937 -0.683,1.629 -1.591,1.629 -0.898,0 -1.526,-0.655 -1.526,-1.638 0,-0.964 0.609,-1.619 1.517,-1.619 0.917,0 1.6,0.702 1.6,1.628"
             style="fill:#000000;fill-opacity:1;fill-rule:nonzero;stroke:none"
             id="path386" />
        </g>
        <g
           id="g388"
           transform="matrix(0.35277777,0,0,-0.35277777,134.11236,78.2624)">
          <path
             d="M 0,0 4.977,-6.385 H 1.41 l -4.559,5.962 v -5.962 h -2.993 v 12.18 h 2.993 V 0.354 l 4.402,5.441 h 3.55 z"
             style="fill:#000000;fill-opacity:1;fill-rule:nonzero;stroke:none"
             id="path390" />
        </g>
        <g
           id="g392"
           transform="matrix(0.35277777,0,0,-0.35277777,137.39655,79.631107)">
          <path
             d="M 0,0 H 5.794 V -2.506 H -2.993 V 9.674 H 5.515 V 7.169 H 0 V 4.942 H 4.976 V 2.506 H 0 Z"
             style="fill:#000000;fill-opacity:1;fill-rule:nonzero;stroke:none"
             id="path394" />
        </g>
        <g
           id="g396"
           transform="matrix(0.35277777,0,0,-0.35277777,139.86998,76.218229)">
          <path
             d="m 0,0 v -2.502 h 3.71 v -9.678 h 2.985 v 9.678 h 3.693 V 0 Z"
             style="fill:#000000;fill-opacity:1;fill-rule:nonzero;stroke:none"
             id="path398" />
        </g>
        <g
           id="g400"
           transform="matrix(0.35277777,0,0,-0.35277777,139.87005,76.218229)">
          <path
             d="m 0,0 v -2.502 h 3.71 v -9.678 h 2.984 v 9.678 h 3.694 V 0 Z"
             style="fill:#000000;fill-opacity:1;fill-rule:nonzero;stroke:none"
             id="path402" />
        </g>
        <g
           id="g404"
           transform="matrix(0.35277777,0,0,-0.35277777,120.92013,78.863921)">
          <path
             d="M 0,0 3.654,-4.68 H 0.226 L -4.141,1.189 V -4.68 H -7.134 V 7.5 h 5.481 C 0.957,7.5 2.784,5.881 2.784,3.55 2.784,1.897 1.722,0.4 0,0 m -0.174,3.515 c 0,0.905 -0.714,1.531 -1.758,1.531 h -2.192 v -3.08 h 2.192 c 1.062,0 1.758,0.627 1.758,1.549"
             style="fill:#000000;fill-opacity:1;fill-rule:nonzero;stroke:none"
             id="path406" />
        </g>
        <g
           id="g408"
           transform="matrix(0.35277777,0,0,-0.35277777,124.76164,77.071105)">
          <path
             d="m 0,0 c 2.195,0 3.911,-1.679 3.911,-3.988 0,-1.83 -0.902,-2.918 -2.121,-3.743 l 1.672,-2.236 c 2.083,1.419 3.389,3.389 3.389,5.979 0,3.822 -3.037,6.61 -6.851,6.61 -3.814,0 -6.851,-2.788 -6.851,-6.61 0,-2.59 1.306,-4.56 3.389,-5.979 l 1.672,2.236 c -1.219,0.825 -2.121,1.913 -2.121,3.743 C -3.911,-1.679 -2.196,0 0,0"
             style="fill:#c8202f;fill-opacity:1;fill-rule:nonzero;stroke:none"
             id="path410" />
        </g>
        <g
           id="g412"
           transform="matrix(0.35277777,0,0,-0.35277777,130.88593,79.325672)">
          <path
             d="m 0,0 1.571,-2.134 c -1.137,-1.014 -2.553,-1.442 -4.284,-1.442 -3.427,0 -6.382,2.5 -6.382,6.312 0,3.742 2.937,6.277 6.382,6.277 1.661,0 3.147,-0.428 4.266,-1.319 L -0.07,5.473 c -0.665,0.524 -1.437,0.918 -2.626,0.918 -1.888,0 -3.41,-1.504 -3.41,-3.707 0,-2.168 1.522,-3.637 3.463,-3.637 1.136,0 1.961,0.428 2.643,0.953"
             style="fill:#000000;fill-opacity:1;fill-rule:nonzero;stroke:none"
             id="path414" />
        </g>
      </g>
    </g>
  </g>
</svg>
