<svg id="Layer_1" data-name="Layer 1" xmlns="http://www.w3.org/2000/svg" viewBox="0 0 288.03 188.9"><defs><style>.cls-1,.cls-6{fill:#fff;}.cls-2{fill:#788ec7;}.cls-3{fill:#fcb23d;}.cls-4{fill:#f04e31;}.cls-5{fill:#0056a7;}.cls-6{font-size:12px;font-family:Arial-BoldMT, Arial;font-weight:700;}</style></defs><title>UWSEM logo (color) 2017</title><path class="cls-1" d="M258.63,176V300.14h288V176Z" transform="translate(-258.63 -175.97)"/><rect class="cls-2" x="170.4" y="2.49" width="115.15" height="119.21"/><path class="cls-1" d="M534.16,237.28a47.56,47.56,0,1,1-47.56-47.56A47.57,47.57,0,0,1,534.16,237.28Z" transform="translate(-258.63 -175.97)"/><path class="cls-3" d="M461.92,246.57c.49-.23,1.61-.73,2.1-1s.49-.54.32-1a23,23,0,0,1-1.12-7.21A23.37,23.37,0,1,1,508,246.7a.58.58,0,0,0,.23.76c.37.16,1.79.79,2.21,1s.68.07.89-.37a27,27,0,1,0-50.28-2C461.23,246.53,461.45,246.79,461.92,246.57Z" transform="translate(-258.63 -175.97)"/><path class="cls-3" d="M455.07,249.74c.57-.28,2.49-1.15,3-1.4a.62.62,0,0,0,.33-.87,29.53,29.53,0,0,1-1.74-10.07,30,30,0,1,1,57.43,11.91.55.55,0,0,0,.25.83c.48.2,2.63,1.16,3,1.34s.69.11.89-.39a33.81,33.81,0,0,0,2.84-13.69,34.5,34.5,0,1,0-66.88,11.94C454.31,249.56,454.5,250,455.07,249.74Z" transform="translate(-258.63 -175.97)"/><path class="cls-3" d="M445.75,254c.67-.33,4.74-2.2,5.45-2.52s.4-.87.3-1.17a37.41,37.41,0,1,1,69.5,1.76.77.77,0,0,0,.41,1.12c.67.29,4.61,2,5.15,2.25s.93.21,1.3-.6a44.82,44.82,0,1,0-83.08-1.37C444.9,253.79,445.09,254.34,445.75,254Z" transform="translate(-258.63 -175.97)"/><path class="cls-4" d="M486.62,227.64a4.81,4.81,0,1,0-4.79-4.8A4.81,4.81,0,0,0,486.62,227.64Z" transform="translate(-258.63 -175.97)"/><path class="cls-4" d="M488.38,252.81a1.7,1.7,0,0,0,1.7-1.7V240.57a7.25,7.25,0,0,1,1.92-4l9.92-9.91a1.7,1.7,0,0,0,0-2.42l-1.81-1.81a1.69,1.69,0,0,0-2.41,0l-9,9a2.57,2.57,0,0,1-2.12.94,2.53,2.53,0,0,1-2.11-.94l-9-9a1.68,1.68,0,0,0-2.41,0l-1.8,1.81a1.71,1.71,0,0,0,0,2.42l9.92,9.91a7.2,7.2,0,0,1,1.91,4v10.53a1.7,1.7,0,0,0,1.7,1.7Z" transform="translate(-258.63 -175.97)"/><path class="cls-5" d="M519.67,256.53c-1.69.62-4.81,3.71-6.25,5l-.38.07c.5-.56,2.66-3.3,3.23-4.24,1.71-2.83-1.51-5.51-5.07-3.47-1.34.76-3.58,3.14-4.67,4l-.35.08a48.31,48.31,0,0,0,3-3.94c1.54-2.3-1.71-4.47-4.51-2.79a55.23,55.23,0,0,0-5.27,4.11l-.28.07c.46-.44,1.56-1.75,2-2.21,1.65-1.85-.72-4-3.21-2.7s-5.85,4.66-9.61,7.08c1.75.95,4.83,1.08,9.71,3.17s6.45,7,3.28,10.8c-3,3.55-7.44,2.35-11.31,1.15-4.49-1.4-6.07-2.86-11.48-4.74-3.53-1.23-5-1.2-4.91-2.23s3.1-.46,6,.58c7.92,2.86,18.44,9.39,21,2.36,2-5.54-7.09-7.94-10.57-8.61-4.87-.93-8.22-4.5-12.45-6.77-6.36-3.44-11.26-3.52-14.9-2.86-3.91.7-9.49,3.9-12.87,5.92-2.34,1.38-2.17,3.49.12,6.77a44.77,44.77,0,0,0,74.76-2.17C526.44,258.11,523.69,255.1,519.67,256.53Z" transform="translate(-258.63 -175.97)"/><rect class="cls-5" x="2.48" y="2.49" width="167.92" height="119.21"/><path class="cls-1" d="M391.19,287.39c0,1.29,4.61,2.68,7,2.68a7.72,7.72,0,0,0,7.52-5.17c1.83-4.5,9.41-30.46,9.41-30.46H416c1.71-.31,2.32-1.33,2.32-3.93,0-.92-.12-1-.88-1H411.2c-.61,0-.66.11-.85.7l-5.18,20-5.33-20c-.17-.59-.25-.69-.84-.71h-6.25c-.76,0-.89.08-.89,1,0,2.61.63,3.65,2.35,3.93h.87s5,17.42,7.6,24.72c0,0-.39,1.41-.39,1.42-.84,2.71-2.3,4-4.58,4-.54,0-3.61-.47-3.61-.47-1.73-.14-2.19.58-2.4,1.23A11.67,11.67,0,0,0,391.19,287.39Z" transform="translate(-258.63 -175.97)"/><path class="cls-1" d="M370,239.76h-7.42c-.65,0-.67.05-.78.71l-4.17,25.94-5.05-25.81c-.11-.69-.23-.84-1-.84h-3.39c-1.25,0-1.3.19-1.45.88l-5.27,25.77-4-25.94c-.09-.66-.12-.71-.76-.71h-7.62c-.79,0-.92.07-.92,1,0,2.85.68,3.9,2.71,4.13l.76,0,5.81,31.91c.19.74.28.89,1,.89h5c.8,0,.83,0,1-.89l5-24.81,4.23,24.82c.14.83.16.88,1,.88h5.13c.68,0,.78-.15,1-.89l6.58-31.93.74,0c2-.23,2.7-1.29,2.7-4.13C370.73,239.9,370.61,239.8,370,239.76Z" transform="translate(-258.63 -175.97)"/><path class="cls-1" d="M389.32,272.76a18.1,18.1,0,0,1-.58-5.06v-10c0-6.32-2.75-9.14-9-9.14-4.34,0-8.93,1.88-8.93,3.06a10.71,10.71,0,0,0,.47,1.9c.13.38.42,1.25,2.26,1.11.75-.06,3.94-.67,5.28-.67,3.53,0,3.88,2.06,3.88,4.49v2c-4.41,0-13.91,0-13.91,9.61,0,5.39,3,8.73,7.8,8.73a8.23,8.23,0,0,0,6.57-3.21l.42-.47.14.72c.22,1.17.44,2,1.35,2h6.39c.81,0,.9-.06.9-1C392.38,273.92,391.68,272.9,389.32,272.76Zm-6.61-1.33c-.7.76-2.16,2.32-4.19,2.32a3.86,3.86,0,0,1-3.7-4.14c0-5.22,6.19-4.92,7.89-4.8Z" transform="translate(-258.63 -175.97)"/><path class="cls-1" d="M344.35,225.73h-.67V203.09c0-.55,0-.62-.55-.62h-9c-.77,0-.88.06-.88,1,0,3.08.82,4,3.46,4h.65v18.23h-.68c-2.65,0-3.46,1-3.46,4,0,.92.12,1,.89,1h12.79c.75,0,.89-.08.89-1C347.83,226.71,347,225.73,344.35,225.73Z" transform="translate(-258.63 -175.97)"/><path class="cls-1" d="M340.47,191.74a3.89,3.89,0,0,0-3.8,4.06,3.79,3.79,0,1,0,7.55,0A3.91,3.91,0,0,0,340.47,191.74Z" transform="translate(-258.63 -175.97)"/><path class="cls-1" d="M298.14,198.91h.17c2.7,0,3.57-1,3.57-4.16,0-.94-.12-1-.92-1H288.66c-.71,0-.81.11-.88.54l0,.48c0,3.14.86,4.14,3.52,4.16h.18v18.57c0,3.54,0,8.38-5.7,8.38-5.28,0-5.7-3.8-5.7-8.38V198.91h.17c2.66,0,3.52-1,3.52-4.16l0-.59c-.07-.33-.19-.43-.87-.43h-12.3c-.79,0-.91.08-.91,1,0,3.18.82,4.16,3.58,4.16h.16v18.57c0,10,3.71,14.26,12.39,14.26s12.4-4.27,12.4-14.26Z" transform="translate(-258.63 -175.97)"/><path class="cls-1" d="M326.69,225.73V210.46c0-6.2-2-9-6.6-9-4.06,0-6.32,2.38-8.08,4.18-.13-.65-.27-1.17-.27-1.17-.28-1.25-.5-2-1.3-2h-6.92c-.77,0-.87.06-.87,1,0,2.92.72,4,3.19,4a15.93,15.93,0,0,1,.56,5.14v13.11c-2.6,0-3.41,1-3.41,4,0,.92.13,1,.9,1h8.23c.5,0,.53-.08.53-.62V209.66c.75-.77,2.46-2.48,4.66-2.48,3.12,0,3.12,3.56,3.12,5.08v17.87c0,.54,0,.62.54.62h8.22c.74,0,.88-.08.88-1C330.06,226.75,329.22,225.75,326.69,225.73Z" transform="translate(-258.63 -175.97)"/><path class="cls-1" d="M359.73,231.74c3.66,0,6.61-1,6.61-1.73,0-.14-.21-1.21-.35-1.75-.5-2.13-.69-2.91-4.58-2.43a1.41,1.41,0,0,1-1.23-.35c-.76-.76-.76-2.43-.76-3.76V207.49h3.48c2.67,0,3.48-.94,3.48-4,0-.92-.12-1-.89-1h-6.06v-8c0-.75-.07-.79-.35-.79s-1.55.17-2.2.26c-1.79.3-3.71,1.69-3.71,4.89v3.61H349.6c-.77,0-.88.06-.88,1,0,3.08.81,4,3.45,4h1v13.24C353.17,226.14,353.17,231.74,359.73,231.74Z" transform="translate(-258.63 -175.97)"/><path class="cls-1" d="M390.13,217.12c0-10.37-3.45-15.64-10.25-15.64s-11.24,6.2-11.24,15.42c0,12.25,6.26,14.84,11.5,14.84,4.24,0,9.16-2,9.16-3.23a11.78,11.78,0,0,0-.5-2c-.2-.63-.56-1.27-2.34-1.18-1.37.07-3.59.71-5.63.71-3.91,0-5.91-2.45-5.92-7.66h14.21C390,218.37,390.13,218.17,390.13,217.12Zm-15-3.73,0-.5c.17-1.91.57-6.4,4.58-6.4s3.93,4.58,3.93,6.9Z" transform="translate(-258.63 -175.97)"/><path class="cls-1" d="M415.4,225.73a15.49,15.49,0,0,1-.56-5.05V192.5c0-.54,0-.62-.56-.62H406c-.77,0-.9.07-.9,1,0,3,.79,4,3.27,4h.16v6.5l-.51-.35a7.66,7.66,0,0,0-5-1.56c-6.43,0-9.84,5.65-9.84,16.29,0,9,3.11,14,8.76,14a10.88,10.88,0,0,0,7.42-3.27l.35,1.22c.27,1,.3,1.06,1.08,1.06h7.25c.76,0,.89-.08.89-1C419,226.72,418.19,225.73,415.4,225.73Zm-11.33.6c-3.81,0-4.57-3.49-4.57-9.55,0-6.42.79-9.88,4.88-9.88a7,7,0,0,1,4.17,1.23v16.06A5.35,5.35,0,0,1,404.07,226.33Z" transform="translate(-258.63 -175.97)"/><path class="cls-5" d="M280.67,328.95c-.43,1.3-2,3.11-5.6,3.11-2.52,0-4.37-.76-5.29-2.21a4.91,4.91,0,0,1-.71-3.11V315.26h3.39V326.1a4.47,4.47,0,0,0,.28,2,2.34,2.34,0,0,0,2.25,1.14,2.23,2.23,0,0,0,2.52-1.92,10.48,10.48,0,0,0,0-1.47V315.26h3.37v11.1A6.67,6.67,0,0,1,280.67,328.95Z" transform="translate(-258.63 -175.97)"/><path class="cls-5" d="M290.66,331.75v-7.9c0-1.38-.24-1.78-1.07-1.78a3.71,3.71,0,0,0-2.21,1.09v8.59h-3.18v-8.8a8.76,8.76,0,0,0-.43-2.85l2.82-.81a3.11,3.11,0,0,1,.45,1.52,14.07,14.07,0,0,1,1.4-.9,5,5,0,0,1,2.18-.52,3,3,0,0,1,2.92,1.76,4.91,4.91,0,0,1,.24,1.73v8.87Z" transform="translate(-258.63 -175.97)"/><path class="cls-5" d="M298.7,318.22a2,2,0,0,1-1.95-2,2,2,0,0,1,2-2,1.94,1.94,0,0,1,1.92,2A2,2,0,0,1,298.7,318.22Zm-1.59,13.52V319.81l3.18-.5v12.43Z" transform="translate(-258.63 -175.97)"/><path class="cls-5" d="M307.1,332a3.28,3.28,0,0,1-3.27-1.78,4.45,4.45,0,0,1-.21-1.87v-6.6H302.4V319.6h1.21a21,21,0,0,1,.12-2.87l3.23-.81a36.28,36.28,0,0,0-.19,3.68h2.85l-.81,2.18h-2v6.1c0,1.54.28,1.95,1.38,1.95a4.16,4.16,0,0,0,1.14-.24l.4,1.9A6.69,6.69,0,0,1,307.1,332Z" transform="translate(-258.63 -175.97)"/><path class="cls-5" d="M314,326.67v.1c0,1.87.93,2.94,2.56,2.94a4.75,4.75,0,0,0,3.08-1.21l1.23,1.9a7,7,0,0,1-4.58,1.68c-3.49,0-5.74-2.47-5.74-6.29A6.65,6.65,0,0,1,312,321a4.78,4.78,0,0,1,3.82-1.64,5,5,0,0,1,3.51,1.28c1.12,1.14,1.61,2.78,1.61,5.31v.74Zm3.73-2.47a3.13,3.13,0,0,0-.38-1.83,1.54,1.54,0,0,0-1.4-.71c-1.21,0-1.9.95-1.9,2.63v0h3.68Z" transform="translate(-258.63 -175.97)"/><path class="cls-5" d="M330.54,331.75a2.17,2.17,0,0,1-.19-.71,4.07,4.07,0,0,1-2.8,1c-3.08,0-5-2.4-5-6.17s2.11-6.41,5.2-6.41a3.27,3.27,0,0,1,2.16.69,14.77,14.77,0,0,1-.1-1.8v-4.18l3.16.5v12.62c0,3,.24,4,.45,4.44Zm-.71-8.95a2.65,2.65,0,0,0-1.73-.78c-1.42,0-2,1.19-2,3.89s.55,3.46,2.21,3.46a2.28,2.28,0,0,0,1.57-.78Z" transform="translate(-258.63 -175.97)"/><path class="cls-5" d="M355.46,331.89h-3.63l-1.47-6.71a39.77,39.77,0,0,1-.78-4.7c0,.38-.33,2.47-.78,4.65l-1.38,6.76h-3.77l-3.94-16.63h3.51l1.42,6.5a50.27,50.27,0,0,1,.88,5.43c.07-.64.36-3,.85-5.27l1.47-6.67h3.63l1.52,7.38c.31,1.54.71,4.37.71,4.37,0-.52.55-3.87.9-5.48l1.35-6.26h3.49Z" transform="translate(-258.63 -175.97)"/><path class="cls-5" d="M368.63,332.36a3.4,3.4,0,0,1-1.71-1.47,5.9,5.9,0,0,1-.74.64,4.19,4.19,0,0,1-2.44.67c-2.7,0-4.18-1.38-4.18-3.8,0-2.85,2-4.18,5.84-4.18.24,0,.45,0,.71,0v-.5c0-1.35-.26-1.8-1.42-1.8a6.7,6.7,0,0,0-3.51,1.38L359.82,321a11.66,11.66,0,0,1,2-1,8.21,8.21,0,0,1,3.32-.71c2,0,3.44.76,3.92,2.11a5.62,5.62,0,0,1,.21,2.18l-.07,4.08c0,1.33.07,1.9,1.14,2.7Zm-2.7-5.93c-2.21,0-3,.4-3,1.85a1.44,1.44,0,0,0,1.4,1.59A2.3,2.3,0,0,0,366,329l0-2.61Z" transform="translate(-258.63 -175.97)"/><path class="cls-5" d="M378.26,331.94c-.83,2.35-1.45,3.37-2.33,4a6.4,6.4,0,0,1-2.94,1.11L371.91,335a7.11,7.11,0,0,0,2-.81,3.65,3.65,0,0,0,.9-1,7.26,7.26,0,0,0,.69-1.42h-.81c-.38-1.14-1-3-1.14-3.42l-2.87-8.54,3.25-.38L376,326.5c.19.71.59,2.35.64,2.52,0-.07.24-1.35.38-1.95.09-.4.28-1.12.47-1.69l1.83-5.79h3.35Z" transform="translate(-258.63 -175.97)"/><path class="cls-5" d="M274.83,345.37a2.67,2.67,0,0,0-1.31-.4,1.25,1.25,0,0,0-1.33,1.38v1.73h3.08l-.81,2.18h-2.25v10h-3.11v-10H268v-2.18h1.16a12.5,12.5,0,0,1-.12-1.66c0-2.4,1.42-3.77,3.91-3.77a5.49,5.49,0,0,1,2.87.76Z" transform="translate(-258.63 -175.97)"/><path class="cls-5" d="M284.73,358.8a5,5,0,0,1-4,1.68c-3.3,0-5.46-2.47-5.46-6.29s2.18-6.36,5.46-6.36a5.09,5.09,0,0,1,4.13,1.83,6.31,6.31,0,0,1,1.4,4.44A6.59,6.59,0,0,1,284.73,358.8Zm-2.59-8a1.74,1.74,0,0,0-3,.59,11.5,11.5,0,0,0,.07,5.77,1.76,1.76,0,0,0,1.61,1c1.38,0,2-1.23,2-4.1A5.65,5.65,0,0,0,282.14,350.82Z" transform="translate(-258.63 -175.97)"/><path class="cls-5" d="M294.79,350.85a1.79,1.79,0,0,0-.93-.24,2.53,2.53,0,0,0-1.95,1v8.59h-3.18v-8.12a11,11,0,0,0-.45-3.56l2.85-.76a3.91,3.91,0,0,1,.5,1.73,3.73,3.73,0,0,1,2.85-1.73,2.45,2.45,0,0,1,1.19.26Z" transform="translate(-258.63 -175.97)"/><path class="cls-5" d="M306.51,360.58a11.79,11.79,0,0,1-5.62-1.49l1.23-2.59a9.35,9.35,0,0,0,4.53,1.33c1.9,0,2.89-.78,2.89-2.25,0-1.07-.69-1.73-2.16-2.14l-1.83-.5a5,5,0,0,1-3.25-2.09,4.76,4.76,0,0,1-.69-2.52c0-3,2.42-5.1,5.91-5.1a9.68,9.68,0,0,1,5.5,1.66l-1.57,2.37a7.11,7.11,0,0,0-3.84-1.26c-1.35,0-2.3.78-2.3,1.9,0,.85.45,1.28,1.83,1.66l2,.55c2.71.74,4.18,2.47,4.18,4.91C313.32,358.37,310.61,360.58,306.51,360.58Z" transform="translate(-258.63 -175.97)"/><path class="cls-5" d="M324.33,358.8a5,5,0,0,1-4,1.68c-3.3,0-5.46-2.47-5.46-6.29s2.18-6.36,5.46-6.36a5.09,5.09,0,0,1,4.13,1.83,6.31,6.31,0,0,1,1.4,4.44A6.59,6.59,0,0,1,324.33,358.8Zm-2.59-8a1.74,1.74,0,0,0-3,.59,11.5,11.5,0,0,0,.07,5.77,1.76,1.76,0,0,0,1.61,1c1.38,0,2-1.23,2-4.1A5.65,5.65,0,0,0,321.74,350.82Z" transform="translate(-258.63 -175.97)"/><path class="cls-5" d="M336.22,360.55a2.78,2.78,0,0,1-.95-1.19,4.54,4.54,0,0,1-3.2,1.16c-1.71,0-3.18-.81-3.58-2a7.26,7.26,0,0,1-.26-2.42v-7.78l3.13-.59v7.81a4.8,4.8,0,0,0,.26,2,1.28,1.28,0,0,0,1.12.57,2.35,2.35,0,0,0,2-1.16v-8.54l3-.64v9.28a3.53,3.53,0,0,0,.74,2.21Z" transform="translate(-258.63 -175.97)"/><path class="cls-5" d="M344.54,360.51a3.28,3.28,0,0,1-3.27-1.78,4.45,4.45,0,0,1-.21-1.87v-6.6h-1.21v-2.18h1.21a21,21,0,0,1,.12-2.87l3.23-.81a36.28,36.28,0,0,0-.19,3.68h2.85l-.81,2.18h-2v6.1c0,1.54.28,1.95,1.38,1.95a4.17,4.17,0,0,0,1.14-.24l.4,1.9A6.69,6.69,0,0,1,344.54,360.51Z" transform="translate(-258.63 -175.97)"/><path class="cls-5" d="M356.12,360.22v-8.16c0-1.21-.33-1.66-1.23-1.66a4.21,4.21,0,0,0-2.52,1.12v8.71h-3.23v-14a12.85,12.85,0,0,0-.24-2.78l3.25-.76a16.34,16.34,0,0,1,.21,3V348c0,.38,0,.88,0,1a5.32,5.32,0,0,1,3.44-1.3,3.14,3.14,0,0,1,3.16,1.73,5.7,5.7,0,0,1,.31,2.25v8.49Z" transform="translate(-258.63 -175.97)"/><path class="cls-5" d="M365.28,355.14v.1c0,1.87.93,2.94,2.56,2.94a4.75,4.75,0,0,0,3.08-1.21l1.23,1.9a7,7,0,0,1-4.58,1.68c-3.49,0-5.74-2.47-5.74-6.29a6.65,6.65,0,0,1,1.52-4.82,4.78,4.78,0,0,1,3.82-1.64,5,5,0,0,1,3.51,1.28c1.12,1.14,1.61,2.78,1.61,5.31v.74Zm3.73-2.47a3.13,3.13,0,0,0-.38-1.83,1.54,1.54,0,0,0-1.4-.71c-1.21,0-1.9.95-1.9,2.63v0H369Z" transform="translate(-258.63 -175.97)"/><path class="cls-5" d="M382.56,360.84a3.4,3.4,0,0,1-1.71-1.47,5.9,5.9,0,0,1-.74.64,4.19,4.19,0,0,1-2.44.67c-2.7,0-4.18-1.38-4.18-3.8,0-2.85,2-4.18,5.84-4.18.24,0,.45,0,.71,0v-.5c0-1.35-.26-1.8-1.42-1.8a6.69,6.69,0,0,0-3.51,1.38l-1.35-2.28a11.66,11.66,0,0,1,2-1,8.21,8.21,0,0,1,3.32-.71c2,0,3.44.76,3.92,2.11a5.62,5.62,0,0,1,.21,2.18l-.07,4.08c0,1.33.07,1.9,1.14,2.7Zm-2.71-5.93c-2.21,0-3,.4-3,1.85a1.44,1.44,0,0,0,1.4,1.59,2.3,2.3,0,0,0,1.66-.83l0-2.61Z" transform="translate(-258.63 -175.97)"/><path class="cls-5" d="M390.08,360.6a10.79,10.79,0,0,1-4.91-1.4l1.14-2.33a8.87,8.87,0,0,0,4,1.38,1.49,1.49,0,0,0,1.61-1.38c0-.83-.59-1.26-1.87-1.5l-1.42-.26a4.29,4.29,0,0,1-2.23-1.23,3.69,3.69,0,0,1-.69-2.18c0-2.37,1.87-4,4.7-4a9.12,9.12,0,0,1,4.34,1.14l-1,2.14a6.42,6.42,0,0,0-3-.88c-.93,0-1.54.47-1.54,1.19s.4.95,1.52,1.23l1.47.38a3.78,3.78,0,0,1,2.42,1.38,3.22,3.22,0,0,1,.66,2.06C395.27,358.89,393.19,360.6,390.08,360.6Z" transform="translate(-258.63 -175.97)"/><path class="cls-5" d="M401,360.51a3.28,3.28,0,0,1-3.27-1.78,4.46,4.46,0,0,1-.21-1.87v-6.6h-1.21v-2.18h1.21a21,21,0,0,1,.12-2.87l3.23-.81a36.42,36.42,0,0,0-.19,3.68h2.85l-.81,2.18h-2v6.1c0,1.54.28,1.95,1.38,1.95a4.16,4.16,0,0,0,1.14-.24l.4,1.9A6.68,6.68,0,0,1,401,360.51Z" transform="translate(-258.63 -175.97)"/><path class="cls-5" d="M407.88,355.14v.1c0,1.87.92,2.94,2.56,2.94a4.75,4.75,0,0,0,3.08-1.21l1.23,1.9a7,7,0,0,1-4.58,1.68c-3.49,0-5.74-2.47-5.74-6.29a6.65,6.65,0,0,1,1.52-4.82,4.77,4.77,0,0,1,3.82-1.64,5,5,0,0,1,3.51,1.28c1.12,1.14,1.61,2.78,1.61,5.31v.74Zm3.73-2.47a3.13,3.13,0,0,0-.38-1.83,1.54,1.54,0,0,0-1.4-.71c-1.21,0-1.9.95-1.9,2.63v0h3.68Z" transform="translate(-258.63 -175.97)"/><path class="cls-5" d="M423.2,350.85a1.79,1.79,0,0,0-.92-.24,2.53,2.53,0,0,0-1.95,1v8.59h-3.18v-8.12a11,11,0,0,0-.45-3.56l2.85-.76a3.92,3.92,0,0,1,.5,1.73,3.73,3.73,0,0,1,2.85-1.73,2.45,2.45,0,0,1,1.19.26Z" transform="translate(-258.63 -175.97)"/><path class="cls-5" d="M431.84,360.22v-7.9c0-1.38-.24-1.78-1.07-1.78a3.7,3.7,0,0,0-2.21,1.09v8.59h-3.18v-8.8a8.75,8.75,0,0,0-.43-2.85l2.82-.81a3.12,3.12,0,0,1,.45,1.52,14,14,0,0,1,1.4-.9,5,5,0,0,1,2.18-.52,3,3,0,0,1,2.92,1.76,4.91,4.91,0,0,1,.24,1.73v8.87Z" transform="translate(-258.63 -175.97)"/><path class="cls-5" d="M456.95,360.22l-.62-8.8c-.07-1-.12-1.87-.12-2.75-.19.95-.33,1.54-.62,2.54l-2.61,9h-2.82l-2.35-8.66c-.21-.81-.5-2-.66-2.92,0,1,0,1.95-.12,3l-.57,8.61h-3.3l1.54-16.49h4.25l2.16,8.26a25.5,25.5,0,0,1,.57,2.61c.14-.85.33-1.71.59-2.68l2.23-8.19h4.22l1.47,16.49Z" transform="translate(-258.63 -175.97)"/><path class="cls-5" d="M464.63,346.7a2,2,0,0,1-1.95-2,2,2,0,0,1,2-2,1.94,1.94,0,0,1,1.92,2A2,2,0,0,1,464.63,346.7ZM463,360.22V348.29l3.18-.5v12.43Z" transform="translate(-258.63 -175.97)"/><path class="cls-5" d="M477.09,359.75a5.68,5.68,0,0,1-3,.76c-3.35,0-5.29-2.33-5.29-6.26,0-2.8,1.07-4.65,2.49-5.62a5.75,5.75,0,0,1,3-.9,5.19,5.19,0,0,1,2.35.54,5.38,5.38,0,0,1,1.19.85l-1.54,2.09a3.06,3.06,0,0,0-1.92-.95c-1.42,0-2.06,1.23-2.06,4.08a5.19,5.19,0,0,0,.62,3.06,1.83,1.83,0,0,0,1.42.69,3.25,3.25,0,0,0,2.18-1l.19-.17,1.45,1.92A5,5,0,0,1,477.09,359.75Z" transform="translate(-258.63 -175.97)"/><path class="cls-5" d="M486.73,360.22v-8.16c0-1.21-.33-1.66-1.23-1.66a4.21,4.21,0,0,0-2.52,1.12v8.71h-3.23v-14a12.82,12.82,0,0,0-.24-2.78l3.25-.76a16.34,16.34,0,0,1,.21,3V348c0,.38,0,.88,0,1a5.32,5.32,0,0,1,3.44-1.3,3.14,3.14,0,0,1,3.16,1.73,5.7,5.7,0,0,1,.31,2.25v8.49Z" transform="translate(-258.63 -175.97)"/><path class="cls-5" d="M494.75,346.7a2,2,0,0,1-1.95-2,2,2,0,0,1,2-2,1.94,1.94,0,0,1,1.92,2A2,2,0,0,1,494.75,346.7Zm-1.59,13.52V348.29l3.18-.5v12.43Z" transform="translate(-258.63 -175.97)"/><path class="cls-5" d="M509.46,350.3a6.83,6.83,0,0,1-.83-.07,2.93,2.93,0,0,1,.71,2c0,2.09-1.9,3.61-4.48,3.61a3.92,3.92,0,0,1-.47,0c-.81.38-1.26.66-1.26,1,0,.17.19.29.52.29l1.71,0c1.85,0,2.82.31,3.68,1.09a3.31,3.31,0,0,1,1,2.59,3.46,3.46,0,0,1-1,2.52,6.55,6.55,0,0,1-4.79,1.57,6.8,6.8,0,0,1-4.6-1.3,2.85,2.85,0,0,1-1-2.16,2.44,2.44,0,0,1,.28-1.23h2.94a1.72,1.72,0,0,0-.14.78c0,1,.81,1.5,2.28,1.5a3.83,3.83,0,0,0,2-.4,1.48,1.48,0,0,0,.78-1.23c0-1.09-1-1.42-2.23-1.45l-1.35,0a8.64,8.64,0,0,1-2.92-.38,1.54,1.54,0,0,1-.92-1.59c0-.78.24-1.52,2.23-2A3.15,3.15,0,0,1,499,352c0-2.49,2-4.11,5.13-4.11a8.78,8.78,0,0,1,2.18.31,6.35,6.35,0,0,0,1.49.26,3.82,3.82,0,0,0,2.52-1l1.33,2A3,3,0,0,1,509.46,350.3Zm-5.31-.12a1.69,1.69,0,0,0-1.9,1.8c0,1.23.76,1.73,1.87,1.73s1.95-.62,1.95-1.73A1.71,1.71,0,0,0,504.14,350.18Z" transform="translate(-258.63 -175.97)"/><path class="cls-5" d="M520.78,360.84a3.4,3.4,0,0,1-1.71-1.47,5.9,5.9,0,0,1-.74.64,4.19,4.19,0,0,1-2.44.67c-2.71,0-4.18-1.38-4.18-3.8,0-2.85,2-4.18,5.84-4.18.24,0,.45,0,.71,0v-.5c0-1.35-.26-1.8-1.42-1.8a6.69,6.69,0,0,0-3.51,1.38L512,349.52a11.69,11.69,0,0,1,2-1,8.21,8.21,0,0,1,3.32-.71c2,0,3.44.76,3.92,2.11a5.63,5.63,0,0,1,.21,2.18l-.07,4.08c0,1.33.07,1.9,1.14,2.7Zm-2.71-5.93c-2.21,0-3,.4-3,1.85a1.44,1.44,0,0,0,1.4,1.59,2.3,2.3,0,0,0,1.66-.83l0-2.61Z" transform="translate(-258.63 -175.97)"/><path class="cls-5" d="M531.15,360.22v-7.9c0-1.38-.24-1.78-1.07-1.78a3.7,3.7,0,0,0-2.21,1.09v8.59h-3.18v-8.8a8.75,8.75,0,0,0-.43-2.85l2.82-.81a3.12,3.12,0,0,1,.45,1.52,14,14,0,0,1,1.4-.9,5,5,0,0,1,2.18-.52,3,3,0,0,1,2.92,1.76,4.9,4.9,0,0,1,.24,1.73v8.87Z" transform="translate(-258.63 -175.97)"/><text class="cls-6" transform="translate(267.04 115.7)">®</text><text x="-258.63" y="-175.97"></text></svg>